<?xml version="1.0" encoding="UTF-8" standalone="no"?>
<!-- Created with Inkscape (http://www.inkscape.org/) -->

<svg
   width="210mm"
   height="297mm"
   viewBox="0 0 210 297"
   version="1.1"
   id="svg1"
   xml:space="preserve"
   sodipodi:docname="mask3.svg"
   inkscape:version="1.3.2 (091e20e, 2023-11-25, custom)"
   xmlns:inkscape="http://www.inkscape.org/namespaces/inkscape"
   xmlns:sodipodi="http://sodipodi.sourceforge.net/DTD/sodipodi-0.dtd"
   xmlns="http://www.w3.org/2000/svg"
   xmlns:svg="http://www.w3.org/2000/svg"><sodipodi:namedview
     id="namedview1"
     pagecolor="#ffffff"
     bordercolor="#000000"
     borderopacity="0.25"
     inkscape:showpageshadow="2"
     inkscape:pageopacity="0.0"
     inkscape:pagecheckerboard="0"
     inkscape:deskcolor="#d1d1d1"
     inkscape:document-units="mm"
     inkscape:zoom="0.57123568"
     inkscape:cx="249.45921"
     inkscape:cy="480.53721"
     inkscape:window-width="1920"
     inkscape:window-height="1001"
     inkscape:window-x="-9"
     inkscape:window-y="-9"
     inkscape:window-maximized="1"
     inkscape:current-layer="text5" /><defs
     id="defs1" /><g
     id="text5"
     style="font-size:25.4px;-inkscape-font-specification:sans-serif;stroke-width:0.264583"
     aria-label="YOUR ONLINE&#10;   PRESENCE"><path
       style="font-family:Elephant;-inkscape-font-specification:Elephant;stroke-width:0.230179"
       d="m 12.266644,127.08952 0.04918,0.91341 q 0.07377,0.63541 0.319677,0.89355 0.270495,0.23828 0.786897,0.29785 0.540991,0.0397 0.983621,0.0596 0.442629,0.0199 0.762306,0.0397 v 0.31771 H 3.1927367 v -0.31771 l 1.6229752,-0.0596 q 0.7377159,-0.0596 1.0082118,-0.29785 0.2704959,-0.23828 0.3442675,-0.89355 l 0.049181,-0.91341 v -3.69333 l -4.6476105,-6.11585 q -0.83607817,-1.05241 -1.32788877,-1.38997 -0.4672201,-0.33756 -1.25411723,-0.41699 l -0.6885349,-0.0596 v -0.31771 H 9.7829994 v 0.31771 l -1.2787077,0.0397 q -0.5164012,0.0397 -0.737716,0.11914 -0.2213148,0.0794 -0.2213148,0.37728 0,0.21842 0.098362,0.43685 0.098362,0.19856 0.4918107,0.75455 0.3934485,0.53613 1.5000225,1.98566 1.1311639,1.44954 2.1639669,2.76008 0.836079,-1.17154 1.8197,-2.5218 0.983621,-1.3701 1.450841,-2.08494 0.491811,-0.7347 0.491811,-1.1914 0,-0.53613 -1.081984,-0.63542 l -0.983621,-0.0397 v -0.31771 h 5.852547 v 0.31771 l -0.639354,0.0397 q -0.836078,0 -1.40166,0.25814 -0.565582,0.25814 -1.180346,1.03255 -0.614763,0.75455 -1.721337,2.30337 -1.081984,1.52896 -2.139376,3.05792 z m 26.508581,-4.70603 q 0,3.17707 -2.975454,5.32159 -2.975455,2.14452 -7.032893,2.14452 -4.229571,0 -7.082073,-2.10481 -2.827911,-2.12466 -2.827911,-5.3613 0,-3.33592 2.901683,-5.40101 2.901682,-2.06509 7.008301,-2.06509 4.106619,0 7.057483,2.10481 2.950864,2.08494 2.950864,5.36129 z m -7.475522,-5.42086 q -0.737716,-1.66796 -2.532825,-1.66796 -0.909849,0 -1.573794,0.47656 -0.663944,0.47656 -1.032802,1.38996 -0.344268,0.89355 -0.516401,2.32323 -0.147543,1.40982 -0.147543,2.89907 0,2.04524 0.196724,3.33592 0.196724,1.29068 0.737716,2.5218 0.540992,1.23111 2.3361,1.23111 0.90985,0 1.573794,-0.47656 0.663945,-0.47656 1.008212,-1.37011 0.368858,-0.91341 0.516402,-2.32323 0.172133,-1.42968 0.172133,-2.91893 0,-1.76724 -0.147543,-3.05792 -0.147543,-1.31054 -0.590173,-2.36294 z m 30.025043,-1.50911 q -0.319677,0.0199 -0.737716,0.0397 -0.393449,0.0199 -1.081984,0.0993 -0.663944,0.0794 -1.032802,0.47656 -0.344268,0.39713 -0.418039,1.03254 l -0.04918,0.95312 v 5.89743 l -0.04918,0.99283 q -0.368858,2.74022 -1.84429,3.83234 -1.475432,1.07226 -4.573839,1.07226 -4.082029,0 -6.295177,-1.25097 -2.213148,-1.25097 -2.213148,-3.1175 v -7.82352 l -0.04918,-0.91341 q -0.07377,-0.63541 -0.344267,-0.87369 -0.245906,-0.25814 -1.008212,-0.33756 l -1.032802,-0.0794 v -0.31771 h 11.508369 v 0.31771 q -0.319677,0.0199 -0.737716,0.0397 -0.393449,0 -1.032803,0.0794 -0.639353,0.0596 -0.885259,0.27799 -0.245905,0.21843 -0.319677,0.89355 l -0.04918,0.91341 v 7.96252 q 0,0.23828 0.02459,0.57584 0.02459,0.33756 0.147543,1.0524 0.147543,0.69499 0.983621,1.38997 0.860669,0.67513 2.336101,0.67513 2.065605,0 3.098407,-0.83398 1.057393,-0.85384 1.40166,-1.94596 0.368858,-1.09211 0.393449,-1.86652 l 0.02459,-0.93326 v -5.75843 l -0.04918,-0.95312 q -0.07377,-0.65527 -0.418039,-0.99284 -0.319677,-0.33756 -0.983621,-0.41699 -0.663944,-0.0993 -1.106574,-0.11914 -0.44263,-0.0198 -0.836078,-0.0397 v -0.31771 h 7.229617 z m 9.221467,6.92997 v 4.64646 l 0.04918,0.91341 q 0.07377,0.63541 0.393448,0.9134 0.319677,0.278 1.081984,0.35742 l 1.254116,0.0794 v 0.31771 H 61.521487 v -0.31771 h 0.762307 q 0.540992,-0.0596 1.032802,-0.0993 0.491811,-0.0596 0.762307,-0.29785 0.295086,-0.25814 0.368858,-0.89355 l 0.04918,-0.91341 v -9.41205 l -0.04918,-0.91341 q -0.07377,-0.63541 -0.368858,-0.89355 -0.295087,-0.25814 -0.836078,-0.31771 -0.540992,-0.0596 -0.934441,-0.0596 -0.393448,-0.0198 -0.737716,-0.0397 v -0.31771 l 10.991968,-0.0199 q 2.286919,0 3.71317,0.15885 1.426251,0.15885 2.31151,0.63541 0.90985,0.47656 1.426251,1.1914 0.540992,0.69499 0.540992,1.62825 0,0.69498 -0.319677,1.38996 -0.295087,0.69499 -0.934441,1.1914 -0.639353,0.49642 -1.598384,0.77441 -0.93444,0.278 -3.000045,0.278 v 0.13899 q 1.254117,0.21843 2.090195,0.41699 0.860669,0.19857 1.549204,0.57585 0.688535,0.37727 1.229526,1.13182 0.565583,0.7347 0.90985,1.62825 0.344267,0.87369 0.614763,1.25097 0.270496,0.35742 0.762307,0.35742 0.639354,0 0.836078,-0.65527 0.221315,-0.67513 0.221315,-1.52896 h 0.393448 q 0,0.97297 -0.147543,1.54882 -0.147543,0.57584 -0.737716,1.21125 -0.590173,0.61556 -1.696747,1.01269 -1.081983,0.37728 -2.360691,0.37728 -1.991833,0 -3.196769,-0.91341 -1.180346,-0.93326 -1.475432,-2.42251 -0.270496,-1.50911 -0.44263,-2.54165 -0.270495,-1.15169 -0.713124,-1.3304 -0.44263,-0.19856 -0.959031,-0.21842 -0.516401,-0.0199 -1.032802,-0.0199 z m 1.967242,-0.41699 q 0.93444,-0.11914 1.40166,-1.09211 0.49181,-0.97298 0.49181,-2.16438 0,-0.97297 -0.49181,-1.90624 -0.491811,-0.95312 -1.180346,-1.11197 -0.688534,-0.15885 -1.229525,-0.17871 -0.540992,-0.0199 -0.959031,-0.0397 v 6.55269 h 0.836078 q 0.688535,0 1.131164,-0.0596 z m 38.090745,0.41699 q 0,3.17707 -2.97545,5.32159 -2.97546,2.14452 -7.0329,2.14452 -4.229566,0 -7.082068,-2.10481 -2.827911,-2.12466 -2.827911,-5.3613 0,-3.33592 2.901682,-5.40101 2.901683,-2.06509 7.008297,-2.06509 4.10662,0 7.05749,2.10481 2.95086,2.08494 2.95086,5.36129 z m -7.47552,-5.42086 q -0.73772,-1.66796 -2.53283,-1.66796 -0.909845,0 -1.57378,0.47656 -0.663948,0.47656 -1.032806,1.38996 -0.344273,0.89355 -0.516406,2.32323 -0.147544,1.40982 -0.147544,2.89907 0,2.04524 0.196725,3.33592 0.196729,1.29068 0.737721,2.5218 0.540995,1.23111 2.33609,1.23111 0.90985,0 1.5738,-0.47656 0.66394,-0.47656 1.00821,-1.37011 0.36886,-0.91341 0.5164,-2.32323 0.17214,-1.42968 0.17214,-2.91893 0,-1.76724 -0.14755,-3.05792 -0.14754,-1.31054 -0.59017,-2.36294 z m 30.68899,-1.50911 q -0.31967,0.0199 -0.71312,0.0397 -0.36886,0.0199 -1.05739,0.11914 -0.68854,0.0794 -1.0574,0.45671 -0.34426,0.35742 -0.41804,0.99283 l -0.0492,0.95312 v 11.59629 h -3.00004 l -11.6805,-12.07285 h -0.0984 v 9.27306 l 0.0492,0.95312 q 0.0738,0.65527 0.39345,0.97297 0.34427,0.31771 1.00821,0.41699 0.68854,0.0794 1.15576,0.0993 0.49181,0.0199 0.66394,0.0397 v 0.31771 h -7.08207 v -0.31771 q 0.31968,-0.0199 0.71313,-0.0397 0.39344,-0.0199 1.37707,-0.139 1.00821,-0.139 1.15575,-1.35025 l 0.0492,-0.95312 v -9.03478 l -0.0492,-0.91341 q -0.31968,-0.41699 -0.76231,-0.77441 -0.44263,-0.35742 -0.98362,-0.49641 -0.5164,-0.139 -1.00821,-0.139 h -0.73771 v -0.31771 h 9.39358 l 8.828,9.13407 h 0.0984 v -6.33428 l -0.0492,-0.95312 q -0.0738,-0.63541 -0.41804,-0.95312 -0.31967,-0.33756 -0.98362,-0.41699 -0.66394,-0.0993 -1.08198,-0.11914 -0.39345,-0.0198 -0.73772,-0.0397 v -0.31771 h 7.08207 z m 11.82804,13.70109 q 1.47543,0 2.92627,-1.09211 1.47544,-1.09212 2.58201,-2.5218 1.13116,-1.42968 2.04101,-3.01821 h 0.39345 v 7.08883 h -19.22979 v -0.31771 q 0.19672,0 0.54099,0 0.36886,-0.0199 1.08198,-0.0794 0.73772,-0.0794 1.05739,-0.33756 0.31968,-0.25814 0.39345,-0.87369 l 0.0492,-0.91341 v -9.43191 l -0.0492,-0.91341 q -0.0738,-0.63541 -0.34426,-0.87369 -0.24591,-0.25814 -0.7869,-0.31771 -0.54099,-0.0596 -0.93444,-0.0596 -0.39345,-0.0198 -0.71313,-0.0397 v -0.31771 h 11.90182 v 0.31771 l -1.62297,0.0596 q -0.73772,0.0596 -1.00822,0.29785 -0.27049,0.23828 -0.34426,0.89355 l -0.0492,0.91341 v 11.59628 z m 20.75442,0.45671 h -11.58214 v -0.31771 q 0.17213,0 0.46722,0 0.29509,-0.0199 0.95903,-0.0794 0.68854,-0.0794 0.95903,-0.33756 0.29509,-0.25814 0.36886,-0.87369 l 0.0492,-0.91341 v -9.43191 l -0.0492,-0.91341 q -0.0738,-0.63541 -0.34427,-0.87369 -0.2459,-0.25814 -1.00821,-0.33756 l -1.32789,-0.0794 v -0.31771 h 11.50837 v 0.31771 l -1.32789,0.0596 q -0.7623,0.0596 -1.0328,0.29785 -0.24591,0.21842 -0.31968,0.89355 l -0.0492,0.91341 v 9.51133 l 0.0492,0.91341 q 0.0738,0.65527 0.34427,0.89355 0.29509,0.21842 1.05739,0.29785 l 1.27871,0.0596 z m 22.86918,-14.1578 q -0.31968,0.0199 -0.71313,0.0397 -0.36886,0.0199 -1.05739,0.11914 -0.68854,0.0794 -1.05739,0.45671 -0.34427,0.35742 -0.41804,0.99283 l -0.0492,0.95312 v 11.59629 h -3.00005 l -11.6805,-12.07285 h -0.0984 v 9.27306 l 0.0492,0.95312 q 0.0738,0.65527 0.39344,0.97297 0.34427,0.31771 1.00822,0.41699 0.68853,0.0794 1.15575,0.0993 0.49181,0.0199 0.66395,0.0397 v 0.31771 h -7.08208 v -0.31771 q 0.31968,-0.0199 0.71313,-0.0397 0.39345,-0.0199 1.37707,-0.139 1.00821,-0.139 1.15575,-1.35025 l 0.0492,-0.95312 v -9.03478 l -0.0492,-0.91341 q -0.31967,-0.41699 -0.7623,-0.77441 -0.44263,-0.35742 -0.98363,-0.49641 -0.5164,-0.139 -1.00821,-0.139 h -0.73771 v -0.31771 h 9.39358 l 8.828,9.13407 h 0.0984 v -6.33428 l -0.0492,-0.95312 q -0.0738,-0.63541 -0.41804,-0.95312 -0.31967,-0.33756 -0.98362,-0.41699 -0.66394,-0.0993 -1.08198,-0.11914 -0.39345,-0.0198 -0.73772,-0.0397 v -0.31771 h 7.08208 z m 9.71324,13.76066 q 1.0328,-0.0198 2.11478,-0.0198 1.08199,-0.0199 2.28692,-0.139 1.20494,-0.139 2.97546,-1.96581 1.77052,-1.84667 2.60659,-3.79262 h 0.39345 v 6.31442 h -19.32816 v -0.31771 q 0.31968,0 0.73772,-0.0199 0.41804,-0.0397 0.93444,-0.0794 0.54099,-0.0596 0.81149,-0.29785 0.29508,-0.25814 0.36886,-0.89355 l 0.0492,-0.91341 v -9.41205 l -0.0492,-0.91341 q -0.0738,-0.63541 -0.36886,-0.89355 -0.29509,-0.25814 -0.83608,-0.31771 -0.5164,-0.0596 -0.95903,-0.0596 -0.41804,-0.0198 -0.76231,-0.0397 v -0.31771 h 18.91012 v 5.87757 h -0.39345 q -1.25411,-2.22394 -3.04922,-3.73305 -1.79511,-1.52896 -3.02464,-1.62824 -1.20493,-0.0993 -2.04101,-0.11914 -0.83608,-0.0199 -1.10658,-0.0199 h -0.22131 l -0.0492,6.51298 1.0328,-0.0397 q 1.42625,-0.11914 2.13938,-1.07226 0.73771,-0.97298 0.73771,-2.28352 h 0.46722 v 7.22783 h -0.46722 q 0,-1.3304 -0.73771,-2.32323 -0.71313,-0.99283 -2.13938,-1.11197 l -1.0328,-0.0397 z"
       id="path9" /><path
       style="font-family:Elephant;-inkscape-font-specification:Elephant;stroke-width:0.379543"
       d="M 25.774941,174.54478 H 12.156669 v -0.76118 h 0.865095 c 0.390689,-0.0951 0.772074,-0.17437 1.144159,-0.23786 0.372084,-0.0951 0.660448,-0.33302 0.865095,-0.7136 0.22325,-0.4123 0.362782,-1.1259 0.418594,-2.14081 l 0.05581,-2.18837 v -22.54978 l -0.05581,-2.18838 c -0.05581,-1.0149 -0.195344,-1.7285 -0.418594,-2.1408 -0.223251,-0.41229 -0.539522,-0.66603 -0.948814,-0.76117 -0.390688,-0.0951 -0.75347,-0.14272 -1.088346,-0.14272 -0.316272,-0.0317 -0.604636,-0.0635 -0.865095,-0.0951 v -0.76117 l 13.03224,-0.0476 c 3.032484,0 5.041736,0.57088 6.027759,1.71265 1.004626,1.14176 1.702284,2.37866 2.092972,3.71072 0.390688,1.30034 0.586032,2.71168 0.586032,4.23403 0,1.4272 -0.130229,2.79096 -0.390688,4.09131 -0.260459,1.30034 -0.660449,2.37867 -1.199971,3.23499 -0.539522,0.82461 -1.209273,1.44306 -2.009253,1.85536 -0.79998,0.4123 -1.832513,0.61845 -3.097599,0.61845 -1.209272,0 -2.185992,0.015 -2.93016,0.0476 -0.744167,0 -1.367408,0.015 -1.869722,0.0476 v 9.13409 l 0.05581,2.18837 c 0.05581,1.01491 0.186042,1.72851 0.390688,2.14081 0.22325,0.38058 0.539522,0.61845 0.948814,0.7136 0.409292,0.0951 0.809283,0.15864 1.199971,0.19029 0.390688,0 0.660448,0.015 0.809282,0.0476 z m 1.116252,-25.16632 c 0,-1.80779 -0.139531,-3.568 -0.418594,-5.28064 -0.279063,-1.71264 -0.70696,-2.69582 -1.28369,-2.94955 -0.558126,-0.28544 -1.106949,-0.42816 -1.646471,-0.42816 -0.520917,-0.0317 -0.911606,-0.0476 -1.172065,-0.0476 v 17.79245 c 0.372085,-0.0317 0.75347,-0.0635 1.144158,-0.0951 0.390689,-0.0317 0.902304,-0.14272 1.534847,-0.33301 0.651147,-0.22201 1.116251,-1.17347 1.395314,-2.85441 0.297667,-1.71264 0.446501,-3.64728 0.446501,-5.80395 z m 18.16699,7.84961 v 11.13217 l 0.05581,2.18837 c 0.05581,1.01491 0.204647,1.74436 0.446501,2.18838 0.241854,0.44402 0.651147,0.72946 1.227877,0.85632 l 1.423221,0.19029 v 0.76118 h -13.39502 v -0.76118 h 0.865095 c 0.409292,-0.0951 0.79998,-0.17437 1.172065,-0.23786 0.372084,-0.0951 0.660448,-0.33302 0.865095,-0.7136 0.22325,-0.4123 0.362782,-1.1259 0.418594,-2.14081 l 0.05581,-2.18837 v -22.54978 l -0.05581,-2.18838 c -0.05581,-1.0149 -0.195344,-1.7285 -0.418594,-2.1408 -0.22325,-0.41229 -0.539522,-0.66603 -0.948814,-0.76117 -0.409292,-0.0951 -0.762773,-0.14272 -1.060439,-0.14272 -0.297667,-0.0317 -0.57673,-0.0635 -0.837189,-0.0951 v -0.76117 l 12.474114,-0.0476 c 1.73019,0 3.134807,0.1268 4.21385,0.38059 1.079043,0.25373 1.953441,0.76117 2.623192,1.52235 0.688355,0.76117 1.227877,1.71264 1.618565,2.8544 0.409292,1.11005 0.613939,2.41038 0.613939,3.90102 0,1.11005 -0.120928,2.22008 -0.362782,3.33013 -0.22325,1.11006 -0.57673,2.06152 -1.060439,2.85441 -0.48371,0.79288 -1.088346,1.41133 -1.81391,1.85536 -0.706959,0.44402 -1.841815,0.66603 -3.404568,0.66603 v 0.33301 c 0.948814,0.34888 1.739493,0.68189 2.372036,0.99904 0.651147,0.31715 1.237179,0.77704 1.758096,1.37963 0.520917,0.60259 0.986023,1.50648 1.395315,2.71168 0.427897,1.17347 0.772074,2.47382 1.032533,3.90102 0.260459,1.39549 0.493011,2.39453 0.697657,2.99712 0.204647,0.57088 0.493011,0.85632 0.865095,0.85632 0.48371,0 0.79998,-0.52331 0.948814,-1.56992 0.167438,-1.07832 0.251157,-2.29939 0.251157,-3.66315 h 0.446501 c 0,1.55406 -0.05581,2.79096 -0.167438,3.71072 -0.111625,0.91976 -0.390688,1.88707 -0.837189,2.90198 -0.446501,0.98318 -1.088345,1.79192 -1.925534,2.42624 -0.818585,0.60259 -1.711587,0.9039 -2.679005,0.9039 -1.506939,0 -2.716213,-0.72947 -3.627818,-2.18838 -0.893001,-1.49064 -1.451127,-3.42528 -1.674378,-5.80395 -0.204646,-2.41038 -0.372084,-4.44019 -0.502313,-6.08939 -0.204646,-1.8395 -0.474407,-2.90198 -0.809283,-3.18742 -0.334875,-0.31715 -0.697657,-0.4916 -1.088345,-0.52331 -0.390688,-0.0317 -0.781376,-0.0476 -1.172064,-0.0476 z m 2.232503,-0.99904 c 0.70696,-0.1903 1.23718,-1.06248 1.590659,-2.61654 0.372084,-1.55405 0.558126,-3.28256 0.558126,-5.1855 0,-1.55405 -0.186042,-3.0764 -0.558126,-4.56704 -0.372084,-1.52235 -0.818585,-2.41038 -1.339502,-2.66411 -0.520917,-0.25373 -0.986023,-0.39645 -1.395315,-0.42816 -0.409292,-0.0317 -0.772074,-0.0635 -1.088345,-0.0952 v 15.69922 h 0.948814 c 0.520917,0 0.948814,-0.0476 1.283689,-0.14272 z m 23.218058,17.36428 c 0.781376,-0.0316 1.581356,-0.0476 2.399941,-0.0476 0.818585,-0.0317 1.68368,-0.14272 2.595285,-0.33302 0.911606,-0.222 2.03716,-1.79192 3.376662,-4.70976 1.339501,-2.94955 2.325524,-5.97838 2.958066,-9.08652 h 0.446501 v 15.12834 H 60.350852 v -0.76118 c 0.241854,0 0.520917,-0.015 0.837189,-0.0476 0.316272,-0.0635 0.669751,-0.1268 1.060439,-0.19029 0.409292,-0.0951 0.716261,-0.33302 0.920908,-0.7136 0.22325,-0.4123 0.362782,-1.1259 0.418594,-2.14081 l 0.05581,-2.18837 v -22.54978 l -0.05581,-2.18838 c -0.05581,-1.0149 -0.195344,-1.7285 -0.418594,-2.1408 -0.22325,-0.41229 -0.539522,-0.66603 -0.948814,-0.76117 -0.390688,-0.0951 -0.75347,-0.14272 -1.088346,-0.14272 -0.316271,-0.0317 -0.604636,-0.0635 -0.865095,-0.0951 v -0.76117 h 21.45994 v 14.08172 h -0.446501 c -0.948812,-3.55214 -2.102273,-6.53342 -3.460379,-8.9438 -1.358106,-2.4421 -2.502264,-3.74243 -3.432474,-3.90102 -0.911606,-0.15864 -1.683681,-0.25373 -2.316223,-0.28544 -0.632542,-0.0317 -1.051137,-0.0476 -1.255783,-0.0476 h -0.251157 l -0.05581,15.60407 1.172064,-0.0952 c 1.079043,-0.19029 1.888326,-1.04661 2.427848,-2.56896 0.558126,-1.55406 0.837189,-3.37771 0.837189,-5.47094 h 0.530219 v 17.31671 h -0.530219 c 0,-2.12494 -0.279063,-3.9803 -0.837189,-5.56608 -0.539522,-1.58579 -1.348805,-2.47382 -2.427848,-2.66411 l -1.172064,-0.0952 z m 32.036426,-9.22923 c 0,3.13984 -0.78138,5.72466 -2.34413,7.75446 -1.544153,1.99808 -3.227823,2.99712 -5.051043,2.99712 -1.599957,0 -3.181313,-0.85632 -4.744066,-2.56896 -1.562753,-1.74435 -2.465056,-2.61654 -2.706911,-2.61654 -0.613938,0 -0.995324,0.39645 -1.144158,1.18933 -0.148834,0.79289 -0.288365,2.12494 -0.418594,3.99617 h -0.474407 v -17.03127 h 0.474407 c 0.111625,0.66603 0.297667,1.76021 0.558126,3.28256 0.279063,1.52235 0.781376,3.346 1.50694,5.47094 0.744167,2.09323 1.711586,3.83758 2.902254,5.23307 1.209274,1.39549 2.604588,2.09323 4.185949,2.09323 0.9116,0 1.65577,-0.4123 2.2325,-1.23691 0.57673,-0.82461 0.86509,-1.80779 0.86509,-2.94955 0,-1.36376 -0.21394,-2.4421 -0.64184,-3.23499 -0.4279,-0.79288 -1.19997,-1.55405 -2.31622,-2.28352 -1.11625,-0.76117 -2.297622,-1.56992 -3.544102,-2.42624 -1.246481,-0.85632 -2.56738,-2.01395 -3.962694,-3.47286 -1.395315,-1.4272 -2.092972,-4.12302 -2.092972,-8.08747 0,-3.10813 0.734866,-5.74051 2.204597,-7.89718 1.469731,-2.15667 3.162714,-3.23499 5.078946,-3.23499 1.060435,0 2.092975,0.42816 3.097595,1.28448 l 2.90226,2.75926 c 0.53952,0 0.893003,-0.38059 1.060443,-1.14176 0.16744,-0.79289 0.25115,-1.76022 0.25115,-2.90198 h 0.53022 v 12.60694 h -0.50231 c -0.093,-0.53917 -0.28837,-1.45891 -0.586033,-2.75925 -0.27906,-1.30035 -0.83719,-2.75926 -1.67438,-4.37675 -0.81858,-1.6175 -1.63717,-2.77512 -2.45575,-3.47286 -0.79998,-0.72946 -1.767403,-1.09419 -2.902258,-1.09419 -0.762773,0 -1.469732,0.38059 -2.120879,1.14177 -0.651147,0.76117 -0.97672,1.71264 -0.97672,2.8544 0,1.2052 0.241854,2.22008 0.725564,3.04469 0.502313,0.79289 1.069741,1.42721 1.702284,1.90294 0.651147,0.47573 1.544148,1.07832 2.678999,1.80779 1.13486,0.72946 2.30692,1.58578 3.5162,2.56896 1.22788,0.95147 2.232503,2.3628 3.013883,4.23403 0.78137,1.8395 1.17206,4.02787 1.17206,6.56513 z m 14.51851,8.84583 c 0.78138,-0.0317 -0.93748,0.33583 -0.11889,0.33583 0.81859,-0.0317 1.68369,-0.14272 2.59529,-0.33302 0.9116,-0.222 2.03716,-1.79192 3.37666,-4.70976 1.3395,-2.94955 2.32553,-5.97838 2.95807,-9.08652 h 0.4465 v 15.12834 h -21.93435 v -0.76118 c 0.24185,0 0.52091,-0.015 0.83719,-0.0476 0.31627,-0.0635 0.66975,-0.1268 1.06044,-0.19029 0.40929,-0.0951 0.71626,-0.33302 0.92091,-0.7136 0.22325,-0.4123 0.36278,-1.1259 0.41859,-2.14081 l 0.0558,-2.18837 v -22.54978 l -0.0558,-2.18838 c -0.0558,-1.0149 -0.19534,-1.7285 -0.41859,-2.1408 -0.22325,-0.41229 -0.53953,-0.66603 -0.94882,-0.76117 -0.39069,-0.0951 -0.75347,-0.14272 -1.08834,-0.14272 -0.31628,-0.0317 -0.60464,-0.0635 -0.8651,-0.0951 v -0.76117 h 21.45994 v 14.08172 h -0.4465 c -0.94881,-3.55214 -2.10228,-6.53342 -3.46038,-8.9438 -1.3581,-2.4421 -2.50226,-3.74243 -3.43247,-3.90102 -0.91161,-0.15864 -1.68369,-0.25373 -2.31623,-0.28544 -0.63253,-0.0317 -1.05113,-0.0476 -1.25578,-0.0476 h -0.25116 l -0.10074,13.15037 1.83897,0.23807 c 1.84369,-0.34365 1.22141,0.38375 1.76094,-1.13859 0.0399,-3.49785 0.0725,-3.071 0.0725,-5.16423 l 5.38239,8.68859 -4.53731,10.16169 -0.39529,-0.0766 c 0,-2.12494 0.0358,-4.13366 -0.52233,-5.71945 -0.53953,-1.58578 -1.61479,-0.92006 -2.69384,-1.11035 l 1.61275,0.19131 z m 35.79652,-32.58495 c -0.24186,0.0316 -0.51162,0.0635 -0.80929,0.0951 -0.27906,0.0317 -0.67905,0.1268 -1.19997,0.28544 -0.52091,0.1268 -0.92091,0.4916 -1.19997,1.09419 -0.26046,0.57088 -0.41859,1.36376 -0.47441,2.37866 l -0.0558,2.28353 v 27.78285 h -3.40457 L 132.4607,145.62012 h -0.11162 v 22.21676 l 0.0558,2.28352 c 0.0558,1.04662 0.20465,1.82366 0.4465,2.3311 0.26046,0.50744 0.64185,0.84046 1.14416,0.99904 0.52091,0.1268 0.95812,0.20616 1.3116,0.23787 0.37208,0.0316 0.62324,0.0635 0.75347,0.0951 v 0.76118 h -8.03702 v -0.76118 c 0.24185,-0.0317 0.51162,-0.0635 0.80929,-0.0951 0.29766,-0.0317 0.81858,-0.14272 1.56275,-0.33302 0.76277,-0.222 1.19997,-1.30034 1.31159,-3.23499 l 0.0558,-2.28352 V 146.191 l -0.0558,-2.18838 c -0.24185,-0.66603 -0.53022,-1.28448 -0.86509,-1.85536 -0.33488,-0.57088 -0.70696,-0.96733 -1.11625,-1.18934 -0.39069,-0.222 -0.77207,-0.33301 -1.14416,-0.33301 h -0.83719 v -0.76117 h 10.6602 l 10.01836,21.88375 h 0.11163 v -15.17586 l -0.0558,-2.28352 c -0.0558,-1.0149 -0.21395,-1.77608 -0.47441,-2.28352 -0.24185,-0.53917 -0.61394,-0.87219 -1.11625,-0.99904 -0.50232,-0.15864 -0.9116,-0.25373 -1.22788,-0.28544 -0.29766,-0.0317 -0.57673,-0.0635 -0.83719,-0.0951 v -0.76117 h 8.03702 z m 12.4741,34.4907 c -3.19992,0 -5.83242,-1.68093 -7.89748,-5.04278 -2.04647,-3.39357 -3.0697,-7.67518 -3.0697,-12.84481 0,-5.29651 1.01394,-9.59396 3.04179,-12.89239 2.04647,-3.33013 4.67895,-4.9952 7.89748,-4.9952 1.37672,0 2.56738,0.39645 3.57201,1.18933 l 2.95806,2.85441 c 0.55813,0 0.93022,-0.31715 1.11626,-0.95147 0.18604,-0.66603 0.31627,-1.60163 0.39068,-2.80683 h 0.55813 v 15.03319 h -0.47441 c -0.81858,-3.86931 -1.40462,-6.48585 -1.75809,-7.84961 -0.33488,-1.36376 -0.90231,-2.67997 -1.70229,-3.94859 -0.79997,-1.26862 -1.82321,-1.90294 -3.06969,-1.90294 -1.61856,0 -2.81854,1.55406 -3.59991,4.6622 -0.78138,3.10813 -1.17207,6.73955 -1.17207,10.8943 0,4.4719 0.46511,8.35705 1.39532,11.65548 0.94881,3.26669 2.33482,4.90005 4.15804,4.90005 1.69298,0 3.05109,-1.04661 4.07432,-3.13984 1.02322,-2.09323 1.70228,-4.82077 2.03716,-8.18262 l 0.4744,0.14272 c -0.26046,3.80587 -1.10694,6.96158 -2.53947,9.4671 -1.43253,2.50553 -3.5627,3.7583 -6.39054,3.7583 z m 20.67855,-1.52235 c 0.78138,-0.0316 1.58136,-0.0476 2.39994,-0.0476 0.81859,-0.0317 1.68369,-0.14272 2.59529,-0.33302 0.9116,-0.222 2.03716,-1.79192 3.37666,-4.70976 1.3395,-2.94955 2.32553,-5.97838 2.95807,-9.08652 h 0.4465 v 15.12834 h -21.93435 v -0.76118 c 0.24185,0 0.52091,-0.015 0.83719,-0.0476 0.31627,-0.0635 0.66975,-0.1268 1.06044,-0.19029 0.40929,-0.0951 0.71626,-0.33302 0.92091,-0.7136 0.22325,-0.4123 0.36278,-1.1259 0.41859,-2.14081 l 0.0558,-2.18837 v -22.54978 l -0.0558,-2.18838 c -0.0558,-1.0149 -0.19534,-1.7285 -0.41859,-2.1408 -0.22325,-0.41229 -0.53953,-0.66603 -0.94882,-0.76117 -0.39069,-0.0951 -0.75347,-0.14272 -1.08834,-0.14272 -0.31628,-0.0317 -0.60464,-0.0635 -0.8651,-0.0951 v -0.76117 h 21.45994 v 14.08172 h -0.4465 c -0.94881,-3.55214 -2.10228,-6.53342 -3.46038,-8.9438 -1.3581,-2.4421 -2.50226,-3.74243 -3.43247,-3.90102 -0.9116,-0.15864 -1.68369,-0.25373 -2.31623,-0.28544 -0.63253,-0.0317 -1.05113,-0.0476 -1.25578,-0.0476 h -0.25116 l -0.0558,15.60407 1.17207,-0.0952 c 1.07904,-0.19029 1.88832,-1.04661 2.42784,-2.56896 0.55813,-1.55406 0.83719,-3.37771 0.83719,-5.47094 h 0.53022 v 17.31671 h -0.53022 c 0,-2.12494 -0.27906,-3.9803 -0.83719,-5.56608 -0.53952,-1.58579 -1.3488,-2.47382 -2.42784,-2.66411 l -1.17207,-0.0952 z"
       id="path10"
       sodipodi:nodetypes="ccccccccccscccccccsscsscccccscccssccccsccscccsccccccccccccssccccsccscsccccscccscccsccsccccscccscssccscccccccccccccccccscccccccccssccccccccccccscscsscccccccsssscscsssccccccccccsssccsccsccccccccccccccccscccccccccsscccccccccccccccccccccccccccccccscccccscsccccccccccccccscscsccccccccsssscssccssccccccccccccccccscccccccccsscccccccccccc" /></g></svg>
