<?xml version="1.0" encoding="UTF-8" standalone="no"?>
<!-- Created with Inkscape (http://www.inkscape.org/) -->

<svg
   width="210mm"
   height="297mm"
   viewBox="0 0 210 297"
   version="1.1"
   id="svg1"
   xml:space="preserve"
   sodipodi:docname="mask4.svg"
   inkscape:version="1.3.2 (091e20e, 2023-11-25, custom)"
   xmlns:inkscape="http://www.inkscape.org/namespaces/inkscape"
   xmlns:sodipodi="http://sodipodi.sourceforge.net/DTD/sodipodi-0.dtd"
   xmlns="http://www.w3.org/2000/svg"
   xmlns:svg="http://www.w3.org/2000/svg"><sodipodi:namedview
     id="namedview1"
     pagecolor="#ffffff"
     bordercolor="#000000"
     borderopacity="0.25"
     inkscape:showpageshadow="2"
     inkscape:pageopacity="0.0"
     inkscape:pagecheckerboard="0"
     inkscape:deskcolor="#d1d1d1"
     inkscape:document-units="mm"
     inkscape:zoom="0.57123568"
     inkscape:cx="249.45921"
     inkscape:cy="480.53721"
     inkscape:window-width="1920"
     inkscape:window-height="1001"
     inkscape:window-x="-9"
     inkscape:window-y="-9"
     inkscape:window-maximized="1"
     inkscape:current-layer="text5" /><defs
     id="defs1" /><g
     id="text5"
     style="font-size:25.4px;-inkscape-font-specification:sans-serif;stroke-width:0.264583"
     aria-label="YOUR ONLINE&#10;   PRESENCE"><path
       style="font-family:Elephant;-inkscape-font-specification:Elephant;stroke-width:0.256012"
       d="m 16.901814,128.1717 0.04756,1.1684 q 0.07134,0.8128 0.309154,1.143 0.261592,0.3048 0.760994,0.381 0.523184,0.0508 0.951243,0.0762 0.428059,0.0254 0.737213,0.0508 v 0.4064 H 8.1266018 v -0.4064 l 1.5695503,-0.0762 q 0.7134319,-0.0762 0.9750239,-0.381 0.261591,-0.3048 0.332935,-1.143 l 0.04756,-1.1684 v -4.7244 l -4.4946216,-7.8232 q -0.8085562,-1.3462 -1.2841775,-1.778 -0.4518402,-0.4318 -1.2128343,-0.5334 l -0.6658698,-0.0762 v -0.4064 H 14.499927 v 0.4064 l -1.236615,0.0508 q -0.499403,0.0508 -0.713432,0.1524 -0.21403,0.1016 -0.21403,0.4826 0,0.2794 0.09512,0.5588 0.09512,0.254 0.475622,0.9652 0.380497,0.6858 1.450645,2.54 1.093928,1.8542 2.092733,3.5306 0.808556,-1.4986 1.759799,-3.2258 0.951242,-1.7526 1.403083,-2.667 0.475621,-0.9398 0.475621,-1.524 0,-0.6858 -1.046367,-0.8128 l -0.951243,-0.0508 v -0.4064 h 5.659894 v 0.4064 l -0.618308,0.0508 q -0.808556,0 -1.35552,0.3302 -0.546965,0.3302 -1.141492,1.3208 -0.594526,0.9652 -1.664674,2.9464 -1.046367,1.9558 -2.068953,3.9116 z m 25.635976,-6.0198 q 0,4.064 -2.877509,6.8072 -2.877508,2.7432 -6.801384,2.7432 -4.090343,0 -6.848947,-2.6924 -2.734823,-2.7178 -2.734823,-6.858 0,-4.2672 2.806166,-6.9088 2.806166,-2.6416 6.777604,-2.6416 3.971438,0 6.825166,2.6924 2.853727,2.667 2.853727,6.858 z m -7.229444,-6.9342 q -0.713431,-2.1336 -2.449449,-2.1336 -0.8799,0 -1.521988,0.6096 -0.642089,0.6096 -0.998805,1.778 -0.332935,1.143 -0.499403,2.9718 -0.142686,1.8034 -0.142686,3.7084 0,2.6162 0.190249,4.2672 0.190248,1.651 0.713432,3.2258 0.523183,1.5748 2.259201,1.5748 0.879899,0 1.521988,-0.6096 0.642089,-0.6096 0.975024,-1.7526 0.356716,-1.1684 0.499402,-2.9718 0.166467,-1.8288 0.166467,-3.7338 0,-2.2606 -0.142686,-3.9116 -0.142686,-1.6764 -0.570746,-3.0226 z m 29.036683,-1.9304 q -0.309154,0.0254 -0.713432,0.0508 -0.380497,0.0254 -1.046367,0.127 -0.642088,0.1016 -0.998804,0.6096 -0.332935,0.508 -0.404279,1.3208 l -0.04756,1.2192 v 7.5438 l -0.04756,1.27 q -0.356716,3.5052 -1.78358,4.9022 -1.426864,1.3716 -4.423278,1.3716 -3.947657,0 -6.087953,-1.6002 -2.140295,-1.6002 -2.140295,-3.9878 v -10.0076 l -0.04756,-1.1684 q -0.07134,-0.8128 -0.332935,-1.1176 -0.23781,-0.3302 -0.975023,-0.4318 l -0.998805,-0.1016 v -0.4064 h 11.129539 v 0.4064 q -0.309154,0.0254 -0.713432,0.0508 -0.380497,0 -0.998805,0.1016 -0.618308,0.0762 -0.856118,0.3556 -0.237811,0.2794 -0.309154,1.143 l -0.04756,1.1684 v 10.1854 q 0,0.3048 0.02378,0.7366 0.02378,0.4318 0.142686,1.3462 0.142686,0.889 0.951243,1.778 0.832337,0.8636 2.259201,0.8636 1.997609,0 2.996414,-1.0668 1.022586,-1.0922 1.355521,-2.4892 0.356716,-1.397 0.380497,-2.3876 l 0.02378,-1.1938 v -7.366 l -0.04756,-1.2192 q -0.07134,-0.8382 -0.404278,-1.27 -0.309154,-0.4318 -0.951243,-0.5334 -0.642089,-0.127 -1.070148,-0.1524 -0.428059,-0.0254 -0.808556,-0.0508 v -0.4064 h 6.991633 z m 8.917916,8.8646 v 5.9436 l 0.04756,1.1684 q 0.07134,0.8128 0.380497,1.1684 0.309153,0.3556 1.046366,0.4572 l 1.212834,0.1016 v 0.4064 H 64.535294 v -0.4064 h 0.737214 q 0.523183,-0.0762 0.998804,-0.127 0.475622,-0.0762 0.737213,-0.381 0.285373,-0.3302 0.356716,-1.143 l 0.04756,-1.1684 v -12.0396 l -0.04756,-1.1684 q -0.07134,-0.8128 -0.356716,-1.143 -0.285373,-0.3302 -0.808556,-0.4064 -0.523183,-0.0762 -0.90368,-0.0762 -0.380497,-0.0254 -0.713432,-0.0508 v -0.4064 l 10.630136,-0.0254 q 2.211638,0 3.59094,0.2032 1.379302,0.2032 2.23542,0.8128 0.879899,0.6096 1.379302,1.524 0.523183,0.889 0.523183,2.0828 0,0.889 -0.309154,1.778 -0.285373,0.889 -0.90368,1.524 -0.618308,0.635 -1.545769,0.9906 -0.903681,0.3556 -2.90129,0.3556 v 0.1778 q 1.212834,0.2794 2.02139,0.5334 0.832337,0.254 1.498207,0.7366 0.66587,0.4826 1.189053,1.4478 0.546965,0.9398 0.8799,2.0828 0.332935,1.1176 0.594527,1.6002 0.261591,0.4572 0.737213,0.4572 0.618307,0 0.808556,-0.8382 0.214029,-0.8636 0.214029,-1.9558 h 0.380497 q 0,1.2446 -0.142686,1.9812 -0.142686,0.7366 -0.713432,1.5494 -0.570746,0.7874 -1.640893,1.2954 -1.046367,0.4826 -2.282983,0.4826 -1.926266,0 -3.091538,-1.1684 -1.141491,-1.1938 -1.426864,-3.0988 -0.261592,-1.9304 -0.428059,-3.2512 -0.261592,-1.4732 -0.68965,-1.7018 -0.428059,-0.254 -0.927462,-0.2794 -0.499402,-0.0254 -0.998805,-0.0254 z m 1.902486,-0.5334 q 0.903679,-0.1524 1.355519,-1.397 0.475622,-1.2446 0.475622,-2.7686 0,-1.2446 -0.475622,-2.4384 -0.475621,-1.2192 -1.141491,-1.4224 -0.665869,-0.2032 -1.189052,-0.2286 -0.523183,-0.0254 -0.927462,-0.0508 v 8.382 h 0.808557 q 0.665869,0 1.093929,-0.0762 z m 36.836869,0.5334 q 0,4.064 -2.8775,6.8072 -2.87751,2.7432 -6.80139,2.7432 -4.090335,0 -6.848938,-2.6924 -2.734823,-2.7178 -2.734823,-6.858 0,-4.2672 2.806166,-6.9088 2.806166,-2.6416 6.777595,-2.6416 3.97144,0 6.82517,2.6924 2.85372,2.667 2.85372,6.858 z m -7.22944,-6.9342 q -0.71343,-2.1336 -2.44945,-2.1336 -0.8799,0 -1.52197,0.6096 -0.64209,0.6096 -0.99881,1.778 -0.332939,1.143 -0.499407,2.9718 -0.142686,1.8034 -0.142686,3.7084 0,2.6162 0.190248,4.2672 0.190254,1.651 0.713435,3.2258 0.52319,1.5748 2.25919,1.5748 0.8799,0 1.52199,-0.6096 0.64209,-0.6096 0.97503,-1.7526 0.35671,-1.1684 0.4994,-2.9718 0.16647,-1.8288 0.16647,-3.7338 0,-2.2606 -0.14269,-3.9116 -0.14269,-1.6764 -0.57075,-3.0226 z m 29.67878,-1.9304 q -0.30915,0.0254 -0.68965,0.0508 -0.35672,0.0254 -1.02259,0.1524 -0.66587,0.1016 -1.02258,0.5842 -0.33294,0.4572 -0.40428,1.27 l -0.0476,1.2192 v 14.8336 h -2.90129 l -11.29601,-15.4432 h -0.0951 v 11.8618 l 0.0476,1.2192 q 0.0713,0.8382 0.3805,1.2446 0.33293,0.4064 0.97502,0.5334 0.66587,0.1016 1.11771,0.127 0.47562,0.0254 0.64209,0.0508 v 0.4064 h -6.84895 v -0.4064 q 0.30916,-0.0254 0.68965,-0.0508 0.3805,-0.0254 1.33174,-0.1778 0.97503,-0.1778 1.11771,-1.7272 l 0.0476,-1.2192 v -11.557 l -0.0476,-1.1684 q -0.30915,-0.5334 -0.73721,-0.9906 -0.42806,-0.4572 -0.95124,-0.635 -0.49941,-0.1778 -0.97503,-0.1778 h -0.71343 v -0.4064 h 9.08437 l 8.5374,11.684 h 0.0951 v -8.1026 l -0.0476,-1.2192 q -0.0713,-0.8128 -0.40428,-1.2192 -0.30915,-0.4318 -0.95124,-0.5334 -0.64209,-0.127 -1.04637,-0.1524 -0.38049,-0.0254 -0.71343,-0.0508 v -0.4064 h 6.84895 z m 11.43868,17.526 q 1.42687,0 2.82995,-1.397 1.42686,-1.397 2.49701,-3.2258 1.09393,-1.8288 1.97383,-3.8608 h 0.3805 v 9.0678 h -18.5968 v -0.4064 q 0.19025,0 0.52319,0 0.35671,-0.0254 1.04636,-0.1016 0.71344,-0.1016 1.02259,-0.4318 0.30915,-0.3302 0.3805,-1.1176 l 0.0476,-1.1684 v -12.065 l -0.0476,-1.1684 q -0.0713,-0.8128 -0.33294,-1.1176 -0.23781,-0.3302 -0.76099,-0.4064 -0.52319,-0.0762 -0.90368,-0.0762 -0.3805,-0.0254 -0.68965,-0.0508 v -0.4064 h 11.51003 v 0.4064 l -1.56955,0.0762 q -0.71343,0.0762 -0.97502,0.381 -0.26159,0.3048 -0.33294,1.143 l -0.0476,1.1684 v 14.8336 z m 20.07123,0.5842 h -11.20088 v -0.4064 q 0.16647,0 0.45184,0 0.28537,-0.0254 0.92746,-0.1016 0.66587,-0.1016 0.92746,-0.4318 0.28538,-0.3302 0.35672,-1.1176 l 0.0476,-1.1684 v -12.065 l -0.0476,-1.1684 q -0.0713,-0.8128 -0.33294,-1.1176 -0.23781,-0.3302 -0.97502,-0.4318 l -1.28418,-0.1016 v -0.4064 h 11.12954 v 0.4064 l -1.28418,0.0762 q -0.73721,0.0762 -0.9988,0.381 -0.23781,0.2794 -0.30916,1.143 l -0.0476,1.1684 v 12.1666 l 0.0476,1.1684 q 0.0713,0.8382 0.33294,1.143 0.28537,0.2794 1.02259,0.381 l 1.23661,0.0762 z m 22.11637,-18.1102 q -0.30915,0.0254 -0.68965,0.0508 -0.35671,0.0254 -1.02258,0.1524 -0.66587,0.1016 -1.02259,0.5842 -0.33293,0.4572 -0.40428,1.27 l -0.0476,1.2192 v 14.8336 h -2.90129 l -11.29601,-15.4432 h -0.0951 v 11.8618 l 0.0476,1.2192 q 0.0713,0.8382 0.3805,1.2446 0.33293,0.4064 0.97502,0.5334 0.66587,0.1016 1.11771,0.127 0.47562,0.0254 0.64209,0.0508 v 0.4064 h -6.84895 v -0.4064 q 0.30916,-0.0254 0.68966,-0.0508 0.38049,-0.0254 1.33174,-0.1778 0.97502,-0.1778 1.11771,-1.7272 l 0.0476,-1.2192 v -11.557 l -0.0476,-1.1684 q -0.30916,-0.5334 -0.73722,-0.9906 -0.42806,-0.4572 -0.95124,-0.635 -0.4994,-0.1778 -0.97502,-0.1778 h -0.71344 v -0.4064 h 9.08437 l 8.5374,11.684 h 0.0951 v -8.1026 l -0.0476,-1.2192 q -0.0713,-0.8128 -0.40428,-1.2192 -0.30916,-0.4318 -0.95125,-0.5334 -0.64208,-0.127 -1.04636,-0.1524 -0.3805,-0.0254 -0.71343,-0.0508 v -0.4064 h 6.84894 z m 9.3935,17.6022 q 0.99881,-0.0254 2.04518,-0.0254 1.04636,-0.0254 2.21164,-0.1778 1.16527,-0.1778 2.8775,-2.5146 1.71224,-2.3622 2.5208,-4.8514 h 0.38049 v 8.0772 h -18.69191 v -0.4064 q 0.30915,0 0.71343,-0.0254 0.40428,-0.0508 0.90368,-0.1016 0.52318,-0.0762 0.78477,-0.381 0.28538,-0.3302 0.35672,-1.143 l 0.0476,-1.1684 v -12.0396 l -0.0476,-1.1684 q -0.0713,-0.8128 -0.35672,-1.143 -0.28537,-0.3302 -0.80855,-0.4064 -0.4994,-0.0762 -0.92746,-0.0762 -0.40428,-0.0254 -0.73722,-0.0508 v -0.4064 h 18.28764 v 7.5184 h -0.38049 q -1.21284,-2.8448 -2.94886,-4.7752 -1.73601,-1.9558 -2.92507,-2.0828 -1.16527,-0.127 -1.97383,-0.1524 -0.80855,-0.0254 -1.07014,-0.0254 h -0.21403 l -0.0476,8.3312 0.99881,-0.0508 q 1.3793,-0.1524 2.06895,-1.3716 0.71343,-1.2446 0.71343,-2.921 h 0.45184 v 9.2456 h -0.45184 q 0,-1.7018 -0.71343,-2.9718 -0.68965,-1.27 -2.06895,-1.4224 l -0.99881,-0.0508 z"
       id="path9" /><path
       style="font-family:Elephant;-inkscape-font-specification:Elephant"
       d="m 31.49702,159.52602 h -12.3952 v -0.4064 h 0.7874 q 0.5334,-0.0762 1.0414,-0.127 0.508,-0.0762 0.7874,-0.381 0.3048,-0.3302 0.381,-1.143 l 0.0508,-1.1684 v -12.0396 l -0.0508,-1.1684 q -0.0762,-0.8128 -0.381,-1.143 -0.3048,-0.3302 -0.8636,-0.4064 -0.5334,-0.0762 -0.9906,-0.0762 -0.4318,-0.0254 -0.7874,-0.0508 v -0.4064 l 11.8618,-0.0254 q 4.140199,0 5.486399,0.9144 1.3716,0.9144 1.905,1.9812 0.5334,1.0414 0.5334,2.2606 0,1.143 -0.3556,2.1844 -0.3556,1.0414 -1.0922,1.7272 -0.7366,0.6604 -1.8288,0.9906 -1.0922,0.3302 -2.8194,0.3302 -1.650999,0 -2.666999,0.0254 -1.016,0 -1.7018,0.0254 v 4.8768 l 0.0508,1.1684 q 0.0762,0.8128 0.3556,1.143 0.3048,0.3048 0.8636,0.381 0.5588,0.0762 1.0922,0.1016 0.5334,0 0.7366,0.0254 z m 1.016,-13.4366 q 0,-1.4478 -0.381,-2.8194 -0.381,-1.3716 -1.1684,-1.5748 -0.762,-0.2286 -1.4986,-0.2286 -0.7112,-0.0254 -1.0668,-0.0254 v 9.4996 q 0.508,-0.0254 1.0414,-0.0508 0.5334,-0.0254 1.397,-0.1778 0.889,-0.1778 1.27,-1.524 0.4064,-1.3716 0.4064,-3.0988 z m 16.535392,4.191 v 5.9436 l 0.0508,1.1684 q 0.0762,0.8128 0.4064,1.1684 0.3302,0.3556 1.1176,0.4572 l 1.2954,0.1016 v 0.4064 h -12.192 v -0.4064 h 0.7874 q 0.5588,-0.0762 1.0668,-0.127 0.508,-0.0762 0.7874,-0.381 0.3048,-0.3302 0.381,-1.143 l 0.0508,-1.1684 v -12.0396 l -0.0508,-1.1684 q -0.0762,-0.8128 -0.381,-1.143 -0.3048,-0.3302 -0.8636,-0.4064 -0.5588,-0.0762 -0.9652,-0.0762 -0.4064,-0.0254 -0.762,-0.0508 v -0.4064 l 11.3538,-0.0254 q 2.3622,0 3.8354,0.2032 1.4732,0.2032 2.3876,0.8128 0.9398,0.6096 1.4732,1.524 0.5588,0.889 0.5588,2.0828 0,0.889 -0.3302,1.778 -0.3048,0.889 -0.9652,1.524 -0.6604,0.635 -1.651,0.9906 -0.9652,0.3556 -3.0988,0.3556 v 0.1778 q 1.2954,0.2794 2.159,0.5334 0.889,0.254 1.6002,0.7366 0.7112,0.4826 1.27,1.4478 0.5842,0.9398 0.9398,2.0828 0.3556,1.1176 0.635,1.6002 0.2794,0.4572 0.7874,0.4572 0.6604,0 0.8636,-0.8382 0.2286,-0.8636 0.2286,-1.9558 h 0.4064 q 0,1.2446 -0.1524,1.9812 -0.1524,0.7366 -0.762,1.5494 -0.6096,0.7874 -1.7526,1.2954 -1.1176,0.4826 -2.4384,0.4826 -2.0574,0 -3.302,-1.1684 -1.2192,-1.1938 -1.524,-3.0988 -0.2794,-1.9304 -0.4572,-3.2512 -0.2794,-1.4732 -0.7366,-1.7018 -0.4572,-0.254 -0.9906,-0.2794 -0.5334,-0.0254 -1.0668,-0.0254 z m 2.032,-0.5334 q 0.9652,-0.1524 1.4478,-1.397 0.508,-1.2446 0.508,-2.7686 0,-1.2446 -0.508,-2.4384 -0.508,-1.2192 -1.2192,-1.4224 -0.7112,-0.2032 -1.27,-0.2286 -0.5588,-0.0254 -0.9906,-0.0508 v 8.382 h 0.8636 q 0.7112,0 1.1684,-0.0762 z m 21.132818,9.271 q 1.0668,-0.0254 2.1844,-0.0254 1.1176,-0.0254 2.3622,-0.1778 1.2446,-0.1778 3.0734,-2.5146 1.828799,-2.3622 2.692399,-4.8514 h 0.4064 v 8.0772 H 62.96763 v -0.4064 q 0.3302,0 0.762,-0.0254 0.4318,-0.0508 0.9652,-0.1016 0.5588,-0.0762 0.8382,-0.381 0.3048,-0.3302 0.381,-1.143 l 0.0508,-1.1684 v -12.0396 l -0.0508,-1.1684 q -0.0762,-0.8128 -0.381,-1.143 -0.3048,-0.3302 -0.8636,-0.4064 -0.5334,-0.0762 -0.9906,-0.0762 -0.4318,-0.0254 -0.7874,-0.0508 v -0.4064 h 19.532599 v 7.5184 h -0.4064 q -1.295399,-2.8448 -3.149599,-4.7752 -1.8542,-1.9558 -3.1242,-2.0828 -1.2446,-0.127 -2.1082,-0.1524 -0.8636,-0.0254 -1.143,-0.0254 h -0.2286 l -0.0508,8.3312 1.0668,-0.0508 q 1.4732,-0.1524 2.2098,-1.3716 0.762,-1.2446 0.762,-2.921 h 0.4826 v 9.2456 h -0.4826 q 0,-1.7018 -0.762,-2.9718 -0.7366,-1.27 -2.2098,-1.4224 l -1.0668,-0.0508 z m 29.15919,-4.9276 q 0,2.5146 -2.133591,4.1402 -2.1082,1.6002 -4.5974,1.6002 -2.1844,0 -4.318,-1.3716 -2.1336,-1.397 -2.4638,-1.397 -0.8382,0 -1.0414,0.635 -0.2032,0.635 -0.381,2.1336 h -0.4318 v -9.0932 h 0.4318 q 0.1524,0.5334 0.508,1.7526 0.381,1.2192 1.3716,2.921 1.016,1.6764 2.6416,2.794 1.651,1.1176 3.81,1.1176 1.2446,0 2.032,-0.6604 0.7874,-0.6604 0.7874,-1.5748 0,-1.0922 -0.5842,-1.7272 -0.5842,-0.635 -2.1082,-1.2192 -1.524,-0.6096 -3.2258,-1.2954 -1.7018,-0.6858 -3.6068,-1.8542 -1.905,-1.143 -1.905,-4.318 0,-2.4892 2.0066,-4.2164 2.0066,-1.7272 4.6228,-1.7272 1.4478,0 2.8194,0.6858 l 2.6416,1.4732 q 0.7366,0 0.9652,-0.6096 0.2286,-0.635 0.2286,-1.5494 h 0.4826 v 6.731 h -0.4572 q -0.127,-0.4318 -0.5334,-1.4732 -0.381,-1.0414 -1.524,-2.3368 -1.1176,-1.2954 -2.2352,-1.8542 -1.0922,-0.5842 -2.6416,-0.5842 -1.0414,0 -1.9304,0.6096 -0.889,0.6096 -0.889,1.524 0,0.9652 0.6604,1.6256 0.6858,0.635 1.5494,1.016 0.889,0.381 2.4384,0.9652 1.5494,0.5842 3.2004,1.3716 1.6764,0.762 2.743201,2.2606 1.06679,1.4732 1.06679,3.5052 z m 10.92198,4.9276 q 1.0668,-0.0254 2.1844,-0.0254 1.1176,-0.0254 2.3622,-0.1778 1.2446,-0.1778 3.0734,-2.5146 1.8288,-2.3622 2.6924,-4.8514 h 0.4064 v 8.0772 h -19.9644 v -0.4064 q 0.3302,0 0.762,-0.0254 0.4318,-0.0508 0.9652,-0.1016 0.5588,-0.0762 0.8382,-0.381 0.3048,-0.3302 0.381,-1.143 l 0.0508,-1.1684 v -12.0396 l -0.0508,-1.1684 q -0.0762,-0.8128 -0.381,-1.143 -0.3048,-0.3302 -0.8636,-0.4064 -0.5334,-0.0762 -0.9906,-0.0762 -0.4318,-0.0254 -0.7874,-0.0508 v -0.4064 h 19.5326 v 7.5184 h -0.4064 q -1.2954,-2.8448 -3.1496,-4.7752 -1.8542,-1.9558 -3.1242,-2.0828 -1.2446,-0.127 -2.1082,-0.1524 -0.8636,-0.0254 -1.143,-0.0254 h -0.2286 l -0.0508,8.3312 1.0668,-0.0508 q 1.4732,-0.1524 2.2098,-1.3716 0.762,-1.2446 0.762,-2.921 h 0.4826 v 9.2456 h -0.4826 q 0,-1.7018 -0.762,-2.9718 -0.7366,-1.27 -2.2098,-1.4224 l -1.0668,-0.0508 z m 34.8742,-17.6022 q -0.3302,0.0254 -0.7366,0.0508 -0.381,0.0254 -1.0922,0.1524 -0.7112,0.1016 -1.0922,0.5842 -0.3556,0.4572 -0.4318,1.27 l -0.0508,1.2192 v 14.8336 h -3.0988 l -12.065,-15.4432 h -0.1016 v 11.8618 l 0.0508,1.2192 q 0.0762,0.8382 0.4064,1.2446 0.3556,0.4064 1.0414,0.5334 0.7112,0.1016 1.1938,0.127 0.508,0.0254 0.6858,0.0508 v 0.4064 h -7.3152 v -0.4064 q 0.3302,-0.0254 0.7366,-0.0508 0.4064,-0.0254 1.4224,-0.1778 1.0414,-0.1778 1.1938,-1.7272 l 0.0508,-1.2192 v -11.557 l -0.0508,-1.1684 q -0.3302,-0.5334 -0.7874,-0.9906 -0.4572,-0.4572 -1.016,-0.635 -0.5334,-0.1778 -1.0414,-0.1778 h -0.762 v -0.4064 h 9.7028 l 9.1186,11.684 h 0.1016 v -8.1026 l -0.0508,-1.2192 q -0.0762,-0.8128 -0.4318,-1.2192 -0.3302,-0.4318 -1.016,-0.5334 -0.6858,-0.127 -1.1176,-0.1524 -0.4064,-0.0254 -0.762,-0.0508 v -0.4064 h 7.3152 z m 11.35379,18.415 q -4.3688,0 -7.1882,-2.6924 -2.794,-2.7178 -2.794,-6.858 0,-4.2418 2.7686,-6.8834 2.794,-2.667 7.1882,-2.667 1.8796,0 3.2512,0.635 l 2.6924,1.524 q 0.762,0 1.016,-0.508 0.254,-0.5334 0.3556,-1.4986 h 0.508 v 8.0264 h -0.4318 q -1.1176,-3.0988 -1.6002,-4.191 -0.4572,-1.0922 -1.5494,-2.1082 -1.0922,-1.016 -2.794,-1.016 -2.2098,0 -3.2766,2.4892 -1.0668,2.4892 -1.0668,5.8166 0,3.5814 1.27,6.223 1.2954,2.6162 3.7846,2.6162 2.3114,0 3.7084,-1.6764 1.397,-1.6764 1.8542,-4.3688 l 0.4318,0.0762 q -0.3556,3.048 -2.3114,5.0546 -1.9558,2.0066 -5.8166,2.0066 z m 18.82139,-0.8128 q 1.0668,-0.0254 2.1844,-0.0254 1.1176,-0.0254 2.3622,-0.1778 1.2446,-0.1778 3.0734,-2.5146 1.8288,-2.3622 2.6924,-4.8514 h 0.4064 v 8.0772 h -19.9644 v -0.4064 q 0.3302,0 0.762,-0.0254 0.4318,-0.0508 0.9652,-0.1016 0.5588,-0.0762 0.8382,-0.381 0.3048,-0.3302 0.381,-1.143 l 0.0508,-1.1684 v -12.0396 l -0.0508,-1.1684 q -0.0762,-0.8128 -0.381,-1.143 -0.3048,-0.3302 -0.8636,-0.4064 -0.5334,-0.0762 -0.9906,-0.0762 -0.4318,-0.0254 -0.7874,-0.0508 v -0.4064 h 19.5326 v 7.5184 h -0.4064 q -1.2954,-2.8448 -3.1496,-4.7752 -1.8542,-1.9558 -3.1242,-2.0828 -1.2446,-0.127 -2.1082,-0.1524 -0.8636,-0.0254 -1.143,-0.0254 h -0.2286 l -0.0508,8.3312 1.0668,-0.0508 q 1.4732,-0.1524 2.2098,-1.3716 0.762,-1.2446 0.762,-2.921 h 0.4826 v 9.2456 h -0.4826 q 0,-1.7018 -0.762,-2.9718 -0.7366,-1.27 -2.2098,-1.4224 l -1.0668,-0.0508 z"
       id="path10" /></g></svg>
