<?xml version="1.0" encoding="UTF-8" standalone="no"?>
<!-- Created with Inkscape (http://www.inkscape.org/) -->

<svg
   width="210mm"
   height="297mm"
   viewBox="0 0 210 297"
   version="1.1"
   id="svg1"
   xml:space="preserve"
   inkscape:version="1.3.2 (091e20e, 2023-11-25, custom)"
   sodipodi:docname="mask1.svg"
   xmlns:inkscape="http://www.inkscape.org/namespaces/inkscape"
   xmlns:sodipodi="http://sodipodi.sourceforge.net/DTD/sodipodi-0.dtd"
   xmlns="http://www.w3.org/2000/svg"
   xmlns:svg="http://www.w3.org/2000/svg"><sodipodi:namedview
     id="namedview1"
     pagecolor="#ffffff"
     bordercolor="#000000"
     borderopacity="0.25"
     inkscape:showpageshadow="2"
     inkscape:pageopacity="0.0"
     inkscape:pagecheckerboard="0"
     inkscape:deskcolor="#d1d1d1"
     inkscape:document-units="mm"
     inkscape:zoom="0.70110129"
     inkscape:cx="435.74303"
     inkscape:cy="541.29126"
     inkscape:window-width="1920"
     inkscape:window-height="1001"
     inkscape:window-x="-9"
     inkscape:window-y="-9"
     inkscape:window-maximized="1"
     inkscape:current-layer="text5" /><defs
     id="defs1" /><g
     id="text5"
     style="font-size:22.5778px;-inkscape-font-specification:sans-serif;stroke-width:0.264583"
     aria-label="YOUR ONLINE&#10;   PRESENCE"><path
       style="font-family:Elephant;-inkscape-font-specification:Elephant"
       d="m 21.265326,132.61292 0.04515,1.03858 q 0.06773,0.72249 0.293512,1.016 0.248355,0.27093 0.722489,0.33867 0.496712,0.0452 0.903112,0.0677 0.406401,0.0226 0.699912,0.0452 v 0.36124 H 12.934117 v -0.36124 l 1.490135,-0.0677 q 0.677334,-0.0677 0.92569,-0.33866 0.248356,-0.27094 0.316089,-1.01601 l 0.04516,-1.03857 v -4.19948 l -4.267205,-6.95396 q -0.767645,-1.19662 -1.219201,-1.58044 -0.4289783,-0.38383 -1.1514679,-0.47414 l -0.6321784,-0.0677 v -0.36125 H 18.984968 v 0.36125 l -1.174046,0.0452 q -0.474134,0.0452 -0.677334,0.13547 -0.2032,0.0903 -0.2032,0.42898 0,0.24836 0.09031,0.49671 0.09031,0.22578 0.451556,0.85796 0.361245,0.6096 1.377246,2.25778 1.038579,1.64818 1.986846,3.13831 0.767646,-1.33209 1.670758,-2.86738 0.903112,-1.55787 1.33209,-2.37067 0.451556,-0.83538 0.451556,-1.35467 0,-0.6096 -0.993423,-0.72249 l -0.903112,-0.0452 v -0.36125 h 5.373516 v 0.36125 l -0.587023,0.0452 q -0.767645,0 -1.286934,0.29352 -0.51929,0.29351 -1.083735,1.17404 -0.564445,0.85796 -1.580446,2.61903 -0.993423,1.73849 -1.964268,3.47698 z m 24.338858,-5.35094 q 0,3.61245 -2.731914,6.05085 -2.731914,2.4384 -6.457251,2.4384 -3.883382,0 -6.502407,-2.39324 -2.596447,-2.41583 -2.596447,-6.09601 0,-3.79307 2.66418,-6.14116 2.664181,-2.34809 6.434674,-2.34809 3.770492,0 6.479828,2.39325 2.709337,2.37066 2.709337,6.096 z m -6.863652,-6.16374 q -0.677334,-1.89653 -2.325513,-1.89653 -0.835379,0 -1.44498,0.54186 -0.6096,0.54187 -0.948267,1.58045 -0.316089,1.016 -0.474134,2.6416 -0.135467,1.60303 -0.135467,3.29636 0,2.32551 0.180623,3.79307 0.180622,1.46756 0.677334,2.86738 0.496711,1.39983 2.144891,1.39983 0.835378,0 1.444979,-0.54187 0.6096,-0.54187 0.92569,-1.55787 0.338667,-1.03858 0.474133,-2.6416 0.158045,-1.6256 0.158045,-3.31894 0,-2.00942 -0.135467,-3.47698 -0.135467,-1.49013 -0.541867,-2.68676 z m 27.567499,-1.71591 q -0.293511,0.0226 -0.677334,0.0452 -0.361245,0.0226 -0.993423,0.11289 -0.609601,0.0903 -0.948268,0.54187 -0.316089,0.45156 -0.383822,1.17405 l -0.04516,1.08373 v 6.70561 l -0.04516,1.12889 q -0.338667,3.11573 -1.693335,4.35751 -1.354668,1.2192 -4.199471,1.2192 -3.747915,0 -5.779917,-1.4224 -2.032002,-1.4224 -2.032002,-3.54471 v -8.89566 l -0.04516,-1.03857 q -0.06773,-0.72249 -0.316089,-0.99343 -0.225778,-0.29351 -0.92569,-0.38382 l -0.948268,-0.0903 v -0.36125 h 10.566411 v 0.36125 q -0.293511,0.0226 -0.677334,0.0452 -0.361245,0 -0.948268,0.0903 -0.587022,0.0677 -0.8128,0.31608 -0.225778,0.24836 -0.293512,1.01601 l -0.04516,1.03857 v 9.0537 q 0,0.27094 0.02258,0.65476 0.02258,0.38382 0.135467,1.19662 0.135467,0.79023 0.903112,1.58045 0.790223,0.76764 2.144891,0.76764 1.896536,0 2.844803,-0.94826 0.970846,-0.97085 1.286935,-2.21263 0.338667,-1.24178 0.361245,-2.12231 l 0.02258,-1.06116 v -6.54756 l -0.04516,-1.08373 q -0.06773,-0.74507 -0.383823,-1.12889 -0.293511,-0.38383 -0.903112,-0.47414 -0.6096,-0.11289 -1.016001,-0.13547 -0.4064,-0.0226 -0.767645,-0.0452 v -0.36125 h 6.637873 z m 8.466688,7.87965 v 5.28321 l 0.04516,1.03858 q 0.06773,0.72249 0.361245,1.03857 0.293511,0.31609 0.993423,0.4064 l 1.151468,0.0903 v 0.36124 H 66.488666 v -0.36124 h 0.699912 q 0.496712,-0.0677 0.948268,-0.11289 0.451556,-0.0677 0.699912,-0.33867 0.270933,-0.29351 0.338667,-1.016 l 0.04515,-1.03858 v -10.70188 l -0.04515,-1.03858 q -0.06773,-0.72249 -0.338667,-1.016 -0.270934,-0.29351 -0.767645,-0.36124 -0.496712,-0.0677 -0.857957,-0.0677 -0.361245,-0.0226 -0.677334,-0.0452 v -0.36125 l 10.092277,-0.0226 q 2.099736,0 3.409248,0.18062 1.309512,0.18062 2.122313,0.72249 0.835379,0.54187 1.309513,1.35467 0.496711,0.79022 0.496711,1.85138 0,0.79022 -0.293511,1.58044 -0.270934,0.79023 -0.857957,1.35467 -0.587022,0.56445 -1.467557,0.88053 -0.857956,0.31609 -2.754491,0.31609 v 0.15805 q 1.151468,0.24835 1.919113,0.47413 0.790223,0.22578 1.422401,0.65476 0.632179,0.42898 1.12889,1.28693 0.51929,0.83538 0.835379,1.85138 0.316089,0.99343 0.564445,1.4224 0.248356,0.4064 0.699912,0.4064 0.587023,0 0.767645,-0.74506 0.2032,-0.76765 0.2032,-1.73849 h 0.361245 q 0,1.10631 -0.135467,1.76106 -0.135467,0.65476 -0.677334,1.37725 -0.541867,0.69991 -1.557868,1.15147 -0.993423,0.42898 -2.167469,0.42898 -1.828802,0 -2.935114,-1.03858 -1.083735,-1.06116 -1.354668,-2.75449 -0.248356,-1.71592 -0.406401,-2.88996 -0.248355,-1.30951 -0.654756,-1.51271 -0.4064,-0.22578 -0.880534,-0.24836 -0.474134,-0.0226 -0.948268,-0.0226 z m 1.806224,-0.47413 q 0.857957,-0.13547 1.286935,-1.24178 0.451556,-1.10631 0.451556,-2.46098 0,-1.10631 -0.451556,-2.16747 -0.451556,-1.08374 -1.083734,-1.26436 -0.632179,-0.18062 -1.12889,-0.2032 -0.496712,-0.0226 -0.880535,-0.0451 v 7.45067 h 0.767646 q 0.632178,0 1.038578,-0.0677 z m 34.973027,0.47413 q 0,3.61245 -2.73192,6.05085 -2.73191,2.4384 -6.45725,2.4384 -3.883378,0 -6.502403,-2.39324 -2.596447,-2.41583 -2.596447,-6.09601 0,-3.79307 2.664181,-6.14116 2.66418,-2.34809 6.434669,-2.34809 3.7705,0 6.47983,2.39325 2.70934,2.37066 2.70934,6.096 z m -6.86365,-6.16374 q -0.67734,-1.89653 -2.32552,-1.89653 -0.83537,0 -1.44498,0.54186 -0.6096,0.54187 -0.948263,1.58045 -0.316089,1.016 -0.474134,2.6416 -0.135467,1.60303 -0.135467,3.29636 0,2.32551 0.180623,3.79307 0.180622,1.46756 0.677331,2.86738 0.49671,1.39983 2.14489,1.39983 0.83538,0 1.44498,-0.54187 0.6096,-0.54187 0.92569,-1.55787 0.33867,-1.03858 0.47414,-2.6416 0.15804,-1.6256 0.15804,-3.31894 0,-2.00942 -0.13547,-3.47698 -0.13546,-1.49013 -0.54186,-2.68676 z m 28.1771,-1.71591 q -0.29352,0.0226 -0.65476,0.0452 -0.33867,0.0226 -0.97085,0.13547 -0.63217,0.0903 -0.97084,0.51929 -0.31609,0.4064 -0.38382,1.12889 l -0.0452,1.08374 V 135.4803 H 127.0875 L 116.36304,121.753 h -0.0903 v 10.54383 l 0.0452,1.08374 q 0.0677,0.74506 0.36124,1.10631 0.31609,0.36124 0.92569,0.47413 0.63218,0.0903 1.06116,0.11289 0.45155,0.0226 0.6096,0.0452 v 0.36124 h -6.50241 v -0.36124 q 0.29351,-0.0226 0.65476,-0.0452 0.36124,-0.0226 1.26436,-0.15804 0.92569,-0.15805 1.06115,-1.53529 l 0.0452,-1.08374 v -10.2729 l -0.0452,-1.03858 q -0.29351,-0.47413 -0.69991,-0.88053 -0.4064,-0.4064 -0.90311,-0.56445 -0.47414,-0.15804 -0.92569,-0.15804 h -0.67734 v -0.36125 h 8.62472 l 8.10543,10.38579 h 0.0903 v -7.20232 l -0.0452,-1.08373 q -0.0677,-0.72249 -0.38382,-1.08373 -0.29351,-0.38383 -0.90311,-0.47414 -0.6096,-0.11289 -0.99343,-0.13547 -0.36124,-0.0226 -0.67733,-0.0452 v -0.36125 h 6.50241 z m 10.85991,15.57868 q 1.35467,0 2.68676,-1.24178 1.35467,-1.24178 2.37067,-2.86738 1.03858,-1.6256 1.87396,-3.43182 h 0.36124 v 8.06027 h -17.65584 v -0.36124 q 0.18062,0 0.49671,0 0.33867,-0.0226 0.99343,-0.0903 0.67733,-0.0903 0.97084,-0.38382 0.29351,-0.29351 0.36125,-0.99342 l 0.0452,-1.03858 v -10.72446 l -0.0452,-1.03857 q -0.0677,-0.72249 -0.31609,-0.99343 -0.22578,-0.29351 -0.72249,-0.36124 -0.49671,-0.0677 -0.85796,-0.0677 -0.36124,-0.0226 -0.65476,-0.0452 v -0.36125 h 10.92766 v 0.36125 l -1.49013,0.0677 q -0.67734,0.0677 -0.92569,0.33867 -0.24836,0.27093 -0.31609,1.016 l -0.0452,1.03858 v 13.18543 z m 19.05567,0.51929 h -10.63414 v -0.36124 q 0.15804,0 0.42898,0 0.27093,-0.0226 0.88053,-0.0903 0.63218,-0.0903 0.88054,-0.38382 0.27093,-0.29351 0.33866,-0.99342 l 0.0452,-1.03858 v -10.72446 l -0.0452,-1.03857 q -0.0677,-0.72249 -0.31609,-0.99343 -0.22577,-0.29351 -0.92569,-0.38382 l -1.2192,-0.0903 v -0.36125 H 162.783 v 0.36125 l -1.2192,0.0677 q -0.69991,0.0677 -0.94827,0.33867 -0.22577,0.24836 -0.29351,1.016 l -0.0452,1.03858 v 10.81477 l 0.0452,1.03857 q 0.0677,0.74507 0.31609,1.01601 0.27094,0.24835 0.97085,0.33866 l 1.17404,0.0677 z m 20.99734,-16.09797 q -0.29351,0.0226 -0.65476,0.0452 -0.33866,0.0226 -0.97084,0.13547 -0.63218,0.0903 -0.97085,0.51929 -0.31609,0.4064 -0.38382,1.12889 l -0.0452,1.08374 v 13.18543 h -2.7545 L 167.27597,121.753 h -0.0903 v 10.54383 l 0.0451,1.08374 q 0.0677,0.74506 0.36125,1.10631 0.31609,0.36124 0.92569,0.47413 0.63218,0.0903 1.06115,0.11289 0.45156,0.0226 0.6096,0.0452 v 0.36124 h -6.5024 v -0.36124 q 0.29351,-0.0226 0.65475,-0.0452 0.36125,-0.0226 1.26436,-0.15804 0.92569,-0.15805 1.06116,-1.53529 l 0.0452,-1.08374 v -10.2729 l -0.0452,-1.03858 q -0.29351,-0.47413 -0.69991,-0.88053 -0.4064,-0.4064 -0.90312,-0.56445 -0.47413,-0.15804 -0.92569,-0.15804 h -0.67733 v -0.36125 h 8.62472 l 8.10543,10.38579 h 0.0903 v -7.20232 l -0.0452,-1.08373 q -0.0677,-0.72249 -0.38383,-1.08373 -0.29351,-0.38383 -0.90311,-0.47414 -0.6096,-0.11289 -0.99342,-0.13547 -0.36125,-0.0226 -0.67734,-0.0452 v -0.36125 h 6.50241 z m 8.91822,15.64641 q 0.94827,-0.0226 1.94169,-0.0226 0.99342,-0.0226 2.09974,-0.15805 1.10631,-0.15804 2.73191,-2.2352 1.6256,-2.09974 2.39325,-4.31236 h 0.36124 v 7.17974 h -17.74615 v -0.36124 q 0.29351,0 0.67733,-0.0226 0.38383,-0.0452 0.85796,-0.0903 0.49671,-0.0677 0.74507,-0.33867 0.27093,-0.29351 0.33866,-1.016 l 0.0452,-1.03858 v -10.70188 l -0.0452,-1.03858 q -0.0677,-0.72249 -0.33866,-1.016 -0.27094,-0.29351 -0.76765,-0.36124 -0.47413,-0.0677 -0.88053,-0.0677 -0.38382,-0.0226 -0.69991,-0.0452 v -0.36125 h 17.36232 v 6.68303 h -0.36124 q -1.15147,-2.52871 -2.79965,-4.24462 -1.64818,-1.73849 -2.77707,-1.85138 -1.10631,-0.11289 -1.87395,-0.13547 -0.76765,-0.0226 -1.01601,-0.0226 h -0.2032 l -0.0452,7.40552 0.94827,-0.0452 q 1.30951,-0.13547 1.96427,-1.21921 0.67733,-1.10631 0.67733,-2.59644 h 0.42898 v 8.21832 h -0.42898 q 0,-1.51272 -0.67733,-2.64161 -0.65476,-1.12889 -1.96427,-1.26435 l -0.94827,-0.0452 z"
       id="path6" /><path
       style="font-family:Elephant;-inkscape-font-specification:Elephant"
       d="M 37.950319,163.77715 H 26.932353 v -0.36124 h 0.699911 q 0.474134,-0.0677 0.92569,-0.11289 0.451556,-0.0677 0.699912,-0.33867 0.270934,-0.29351 0.338667,-1.016 l 0.04516,-1.03858 V 150.2079 l -0.04516,-1.03858 q -0.06773,-0.72249 -0.338667,-1.016 -0.270934,-0.29352 -0.767645,-0.36125 -0.474134,-0.0677 -0.880534,-0.0677 -0.383823,-0.0226 -0.699912,-0.0452 v -0.36124 l 10.543833,-0.0226 q 3.680181,0 4.876805,0.8128 1.219201,0.8128 1.693335,1.76107 0.474134,0.92569 0.474134,2.00942 0,1.016 -0.31609,1.94169 -0.316089,0.92569 -0.970845,1.53529 -0.654756,0.58703 -1.625602,0.88054 -0.970845,0.29351 -2.506136,0.29351 -1.467557,0 -2.370669,0.0226 -0.903112,0 -1.512712,0.0226 v 4.33493 l 0.04516,1.03858 q 0.06773,0.72249 0.316089,1.016 0.270934,0.27094 0.767646,0.33867 0.496711,0.0677 0.970845,0.0903 0.474134,0 0.654756,0.0226 z m 0.903112,-11.94365 q 0,-1.28694 -0.338667,-2.50614 -0.338667,-1.2192 -1.038579,-1.39982 -0.677334,-0.2032 -1.33209,-0.2032 -0.632178,-0.0226 -0.948267,-0.0226 v 8.4441 q 0.451556,-0.0226 0.925689,-0.0452 0.474134,-0.0226 1.241779,-0.15804 0.790224,-0.15805 1.128891,-1.35467 0.361244,-1.2192 0.361244,-2.75449 z m 14.698144,3.72533 v 5.28321 l 0.04516,1.03858 q 0.06773,0.72249 0.361245,1.03858 0.293512,0.31609 0.993423,0.4064 l 1.151468,0.0903 v 0.36124 H 45.265522 v -0.36124 h 0.699912 q 0.496711,-0.0677 0.948267,-0.11289 0.451556,-0.0677 0.699912,-0.33867 0.270934,-0.29351 0.338667,-1.016 l 0.04516,-1.03858 V 150.2079 l -0.04516,-1.03858 q -0.06773,-0.72249 -0.338667,-1.016 -0.270933,-0.29352 -0.767645,-0.36125 -0.496712,-0.0677 -0.857956,-0.0677 -0.361245,-0.0226 -0.677334,-0.0452 v -0.36124 l 10.092277,-0.0226 q 2.099735,0 3.409247,0.18062 1.309513,0.18062 2.122314,0.72249 0.835378,0.54187 1.309512,1.35467 0.496712,0.79022 0.496712,1.85138 0,0.79022 -0.293512,1.58045 -0.270933,0.79022 -0.857956,1.35466 -0.587023,0.56445 -1.467557,0.88054 -0.857957,0.31609 -2.754492,0.31609 v 0.15804 q 1.151468,0.24836 1.919113,0.47414 0.790223,0.22577 1.422402,0.65475 0.632178,0.42898 1.12889,1.28694 0.519289,0.83537 0.835378,1.85138 0.31609,0.99342 0.564445,1.4224 0.248356,0.4064 0.699912,0.4064 0.587023,0 0.767645,-0.74507 0.203201,-0.76764 0.203201,-1.73849 h 0.361244 q 0,1.10631 -0.135466,1.76107 -0.135467,0.65475 -0.677334,1.37724 -0.541868,0.69992 -1.557869,1.15147 -0.993423,0.42898 -2.167469,0.42898 -1.828801,0 -2.935114,-1.03858 -1.083734,-1.06116 -1.354668,-2.75449 -0.248355,-1.71591 -0.4064,-2.88996 -0.248356,-1.30951 -0.654756,-1.51271 -0.406401,-0.22578 -0.880535,-0.24836 -0.474133,-0.0226 -0.948267,-0.0226 z m 1.806224,-0.47413 q 0.857956,-0.13547 1.286935,-1.24178 0.451556,-1.10631 0.451556,-2.46098 0,-1.10631 -0.451556,-2.16747 -0.451556,-1.08373 -1.083735,-1.26435 -0.632178,-0.18063 -1.12889,-0.2032 -0.496712,-0.0226 -0.880534,-0.0452 v 7.45067 h 0.767645 q 0.632178,0 1.038579,-0.0677 z m 18.784745,8.2409 q 0.948268,-0.0226 1.941691,-0.0226 0.993423,-0.0226 2.099735,-0.15804 1.106312,-0.15805 2.731914,-2.23521 1.625602,-2.09973 2.393247,-4.31236 h 0.361245 v 7.17974 H 65.924224 v -0.36124 q 0.293512,0 0.677334,-0.0226 0.383823,-0.0451 0.857957,-0.0903 0.496712,-0.0677 0.745067,-0.33867 0.270934,-0.29351 0.338667,-1.016 l 0.04516,-1.03858 V 150.2079 l -0.04516,-1.03858 q -0.06773,-0.72249 -0.338667,-1.016 -0.270933,-0.29352 -0.767645,-0.36125 -0.474134,-0.0677 -0.880534,-0.0677 -0.383823,-0.0226 -0.699912,-0.0452 v -0.36124 H 83.21882 v 6.68303 h -0.361245 q -1.151468,-2.52872 -2.799647,-4.24463 -1.64818,-1.73849 -2.77707,-1.85138 -1.106312,-0.11289 -1.873957,-0.13547 -0.767645,-0.0226 -1.016001,-0.0226 h -0.2032 l -0.04516,7.40551 0.948268,-0.0452 q 1.309512,-0.13547 1.964268,-1.2192 0.677334,-1.10631 0.677334,-2.59645 h 0.428978 v 8.21832 h -0.428978 q 0,-1.51271 -0.677334,-2.6416 -0.654756,-1.12889 -1.964268,-1.26436 l -0.948268,-0.0452 z m 25.919316,-4.3801 q 0,2.23521 -1.896533,3.68019 -1.873957,1.4224 -4.086582,1.4224 -1.941691,0 -3.838226,-1.2192 -1.896535,-1.24178 -2.190047,-1.24178 -0.745067,0 -0.92569,0.56444 -0.180622,0.56445 -0.338667,1.89654 h -0.383822 v -8.08285 h 0.383822 q 0.135467,0.47413 0.451556,1.55786 0.338668,1.08374 1.219202,2.59645 0.903112,1.49014 2.348091,2.48356 1.467557,0.99342 3.38667,0.99342 1.106312,0 1.806224,-0.58702 0.699912,-0.58702 0.699912,-1.39982 0,-0.97085 -0.519289,-1.5353 -0.51929,-0.56444 -1.873958,-1.08373 -1.354668,-0.54187 -2.867381,-1.15147 -1.512712,-0.6096 -3.206047,-1.64818 -1.693335,-1.016 -1.693335,-3.83822 0,-2.21263 1.783646,-3.74792 1.783646,-1.53529 4.10916,-1.53529 1.286934,0 2.506136,0.6096 l 2.348091,1.30951 q 0.654756,0 0.857956,-0.54186 0.2032,-0.56445 0.2032,-1.37725 h 0.428979 v 5.98312 h -0.406401 q -0.112889,-0.38382 -0.474134,-1.30951 -0.338667,-0.92569 -1.354668,-2.07716 -0.993423,-1.15147 -1.986846,-1.64818 -0.970845,-0.51929 -2.348091,-0.51929 -0.92569,0 -1.715913,0.54187 -0.790223,0.54186 -0.790223,1.35467 0,0.85795 0.587023,1.44497 0.6096,0.56445 1.377245,0.90312 0.790223,0.33866 2.167469,0.85795 1.377246,0.51929 2.844803,1.2192 1.490135,0.67734 2.438403,2.00943 0.948265,1.30951 0.948265,3.11573 z m 9.70843,4.3801 q 0.94827,-0.0226 1.94169,-0.0226 0.99342,-0.0226 2.09974,-0.15804 1.10631,-0.15805 2.73191,-2.23521 1.6256,-2.09973 2.39325,-4.31236 h 0.36124 v 7.17974 h -17.74615 v -0.36124 q 0.29351,0 0.67734,-0.0226 0.38382,-0.0451 0.85795,-0.0903 0.49671,-0.0677 0.74507,-0.33867 0.27093,-0.29351 0.33867,-1.016 l 0.0451,-1.03858 V 150.2079 l -0.0451,-1.03858 q -0.0677,-0.72249 -0.33867,-1.016 -0.27093,-0.29352 -0.76765,-0.36125 -0.47413,-0.0677 -0.88053,-0.0677 -0.38382,-0.0226 -0.69991,-0.0452 v -0.36124 h 17.36233 v 6.68303 h -0.36125 q -1.15147,-2.52872 -2.79965,-4.24463 -1.64818,-1.73849 -2.77707,-1.85138 -1.10631,-0.11289 -1.87395,-0.13547 -0.76765,-0.0226 -1.016,-0.0226 h -0.2032 l -0.0452,7.40551 0.94827,-0.0452 q 1.30951,-0.13547 1.96427,-1.2192 0.67733,-1.10631 0.67733,-2.59645 h 0.42898 v 8.21832 h -0.42898 q 0,-1.51271 -0.67733,-2.6416 -0.65476,-1.12889 -1.96427,-1.26436 l -0.94827,-0.0452 z m 30.99932,-15.64642 q -0.29351,0.0226 -0.65475,0.0452 -0.33867,0.0226 -0.97085,0.13546 -0.63218,0.0903 -0.97084,0.51929 -0.31609,0.4064 -0.38383,1.12889 l -0.0452,1.08374 v 13.18543 h -2.75449 l -10.72446,-13.7273 h -0.0903 v 10.54383 l 0.0452,1.08374 q 0.0677,0.74507 0.36124,1.10631 0.31609,0.36125 0.92569,0.47413 0.63218,0.0903 1.06116,0.11289 0.45155,0.0226 0.6096,0.0452 v 0.36124 h -6.50241 v -0.36124 q 0.29351,-0.0226 0.65476,-0.0452 0.36124,-0.0226 1.26435,-0.15804 0.92569,-0.15805 1.06116,-1.53529 l 0.0452,-1.08374 v -10.2729 l -0.0452,-1.03857 q -0.29351,-0.47414 -0.69991,-0.88054 -0.4064,-0.4064 -0.90311,-0.56444 -0.47414,-0.15805 -0.92569,-0.15805 h -0.67734 v -0.36124 h 8.62472 l 8.10543,10.38579 h 0.0903 v -7.20232 l -0.0452,-1.08374 q -0.0677,-0.72249 -0.38382,-1.08373 -0.29351,-0.38382 -0.90312,-0.47414 -0.6096,-0.11288 -0.99342,-0.13546 -0.36124,-0.0226 -0.67733,-0.0452 v -0.36124 h 6.5024 z m 10.09227,16.36891 q -3.88338,0 -6.38952,-2.39325 -2.48356,-2.41582 -2.48356,-6.09601 0,-3.77049 2.46098,-6.11858 2.48356,-2.37067 6.38952,-2.37067 1.67076,0 2.88996,0.56445 l 2.39325,1.35466 q 0.67733,0 0.90311,-0.45155 0.22578,-0.47414 0.31609,-1.33209 h 0.45155 v 7.13458 h -0.38382 q -0.99342,-2.75449 -1.4224,-3.72533 -0.4064,-0.97085 -1.37725,-1.87396 -0.97084,-0.90311 -2.48356,-0.90311 -1.96426,0 -2.91253,2.21262 -0.94827,2.21263 -0.94827,5.17032 0,3.18347 1.12889,5.53156 1.15147,2.32551 3.36409,2.32551 2.05458,0 3.29636,-1.49013 1.24178,-1.49014 1.64818,-3.88338 l 0.38382,0.0677 q -0.31609,2.70934 -2.05458,4.49298 -1.73849,1.78365 -5.17031,1.78365 z m 16.73014,-0.72249 q 0.94827,-0.0226 1.94169,-0.0226 0.99343,-0.0226 2.09974,-0.15804 1.10631,-0.15805 2.73191,-2.23521 1.6256,-2.09973 2.39325,-4.31236 h 0.36124 v 7.17974 H 159.3737 v -0.36124 q 0.29351,0 0.67734,-0.0226 0.38382,-0.0451 0.85795,-0.0903 0.49671,-0.0677 0.74507,-0.33867 0.27093,-0.29351 0.33867,-1.016 l 0.0452,-1.03858 V 150.2079 l -0.0452,-1.03858 q -0.0677,-0.72249 -0.33867,-1.016 -0.27093,-0.29352 -0.76764,-0.36125 -0.47414,-0.0677 -0.88054,-0.0677 -0.38382,-0.0226 -0.69991,-0.0452 v -0.36124 h 17.36233 v 6.68303 h -0.36125 q -1.15146,-2.52872 -2.79964,-4.24463 -1.64818,-1.73849 -2.77707,-1.85138 -1.10632,-0.11289 -1.87396,-0.13547 -0.76765,-0.0226 -1.016,-0.0226 h -0.2032 l -0.0452,7.40551 0.94827,-0.0452 q 1.30951,-0.13547 1.96427,-1.2192 0.67733,-1.10631 0.67733,-2.59645 h 0.42898 v 8.21832 h -0.42898 q 0,-1.51271 -0.67733,-2.6416 -0.65476,-1.12889 -1.96427,-1.26436 l -0.94827,-0.0452 z"
       id="path7" /></g></svg>
