<?xml version="1.0" encoding="UTF-8" standalone="no"?>
<!-- Created with Inkscape (http://www.inkscape.org/) -->

<svg
   width="210mm"
   height="297mm"
   viewBox="0 0 210 297"
   version="1.1"
   id="svg1"
   xml:space="preserve"
   sodipodi:docname="mask1.svg"
   inkscape:version="1.3.2 (091e20e, 2023-11-25, custom)"
   xmlns:inkscape="http://www.inkscape.org/namespaces/inkscape"
   xmlns:sodipodi="http://sodipodi.sourceforge.net/DTD/sodipodi-0.dtd"
   xmlns="http://www.w3.org/2000/svg"
   xmlns:svg="http://www.w3.org/2000/svg"><sodipodi:namedview
     id="namedview1"
     pagecolor="#ffffff"
     bordercolor="#000000"
     borderopacity="0.25"
     inkscape:showpageshadow="2"
     inkscape:pageopacity="0.0"
     inkscape:pagecheckerboard="0"
     inkscape:deskcolor="#d1d1d1"
     inkscape:document-units="mm"
     inkscape:zoom="6.462794"
     inkscape:cx="438.43267"
     inkscape:cy="574.90615"
     inkscape:window-width="1920"
     inkscape:window-height="1001"
     inkscape:window-x="-9"
     inkscape:window-y="-9"
     inkscape:window-maximized="1"
     inkscape:current-layer="text5" /><defs
     id="defs1" /><g
     id="text5"
     style="font-size:25.4px;-inkscape-font-specification:sans-serif;stroke-width:0.264583"
     aria-label="YOUR ONLINE&#10;   PRESENCE"><path
       style="font-family:Elephant;-inkscape-font-specification:Elephant"
       d="m 11.800066,131.87712 0.0508,1.1684 q 0.0762,0.8128 0.3302,1.143 0.2794,0.3048 0.8128,0.381 0.5588,0.0508 1.016,0.0762 0.4572,0.0254 0.7874,0.0508 v 0.4064 H 2.4274664 v -0.4064 l 1.6764,-0.0762 q 0.762,-0.0762 1.0414,-0.381 0.2794,-0.3048 0.3556,-1.143 l 0.0508,-1.1684 v -4.7244 l -4.80059996,-7.8232 q -0.86359999,-1.3462 -1.37159998,-1.778 -0.48259996,-0.4318 -1.29539996,-0.5334 l -0.7112,-0.0762 v -0.4064 H 9.2346663 v 0.4064 l -1.3208,0.0508 q -0.5334,0.0508 -0.762,0.1524 -0.2286,0.1016 -0.2286,0.4826 0,0.2794 0.1016,0.5588 0.1016,0.254 0.508,0.9652 0.4064,0.6858 1.5494,2.54 1.1683997,1.8542 2.2351997,3.5306 0.8636,-1.4986 1.8796,-3.2258 1.016,-1.7526 1.4986,-2.667 0.508,-0.9398 0.508,-1.524 0,-0.6858 -1.1176,-0.8128 l -1.016,-0.0508 v -0.4064 h 6.0452 v 0.4064 l -0.6604,0.0508 q -0.8636,0 -1.4478,0.3302 -0.5842,0.3302 -1.2192,1.3208 -0.635,0.9652 -1.778,2.9464 -1.1176,1.9558 -2.2098,3.9116 z m 27.381187,-6.0198 q 0,4.064 -3.0734,6.8072 -3.0734,2.7432 -7.2644,2.7432 -4.3688,0 -7.3152,-2.6924 -2.921,-2.7178 -2.921,-6.858 0,-4.2672 2.9972,-6.9088 2.9972,-2.6416 7.239,-2.6416 4.2418,0 7.2898,2.6924 3.048,2.667 3.048,6.858 z m -7.7216,-6.9342 q -0.762,-2.1336 -2.6162,-2.1336 -0.9398,0 -1.6256,0.6096 -0.6858,0.6096 -1.0668,1.778 -0.3556,1.143 -0.5334,2.9718 -0.1524,1.8034 -0.1524,3.7084 0,2.6162 0.2032,4.2672 0.2032,1.651 0.762,3.2258 0.5588,1.5748 2.413,1.5748 0.9398,0 1.6256,-0.6096 0.6858,-0.6096 1.0414,-1.7526 0.381,-1.1684 0.5334,-2.9718 0.1778,-1.8288 0.1778,-3.7338 0,-2.2606 -0.1524,-3.9116 -0.1524,-1.6764 -0.6096,-3.0226 z m 31.013402,-1.9304 q -0.3302,0.0254 -0.762,0.0508 -0.4064,0.0254 -1.1176,0.127 -0.6858,0.1016 -1.0668,0.6096 -0.3556,0.508 -0.4318,1.3208 l -0.0508,1.2192 v 7.5438 l -0.0508,1.27 q -0.381,3.5052 -1.905,4.9022 -1.524,1.3716 -4.7244,1.3716 -4.2164,0 -6.5024,-1.6002 -2.286,-1.6002 -2.286,-3.9878 v -10.0076 l -0.0508,-1.1684 q -0.0762,-0.8128 -0.3556,-1.1176 -0.254,-0.3302 -1.0414,-0.4318 l -1.0668,-0.1016 v -0.4064 h 11.8872 v 0.4064 q -0.3302,0.0254 -0.762,0.0508 -0.4064,0 -1.0668,0.1016 -0.6604,0.0762 -0.9144,0.3556 -0.254,0.2794 -0.3302,1.143 l -0.0508,1.1684 v 10.1854 q 0,0.3048 0.0254,0.7366 0.0254,0.4318 0.1524,1.3462 0.1524,0.889 1.016,1.778 0.889,0.8636 2.413,0.8636 2.1336,0 3.2004,-1.0668 1.0922,-1.0922 1.4478,-2.4892 0.381,-1.397 0.4064,-2.3876 l 0.0254,-1.1938 v -7.366 l -0.0508,-1.2192 q -0.0762,-0.8382 -0.4318,-1.27 -0.3302,-0.4318 -1.016,-0.5334 -0.6858,-0.127 -1.143,-0.1524 -0.4572,-0.0254 -0.8636,-0.0508 v -0.4064 h 7.4676 z m 9.525018,8.8646 v 5.9436 l 0.0508,1.1684 q 0.0762,0.8128 0.4064,1.1684 0.3302,0.3556 1.1176,0.4572 l 1.295399,0.1016 v 0.4064 H 62.676273 v -0.4064 h 0.7874 q 0.5588,-0.0762 1.0668,-0.127 0.508,-0.0762 0.7874,-0.381 0.3048,-0.3302 0.381,-1.143 l 0.0508,-1.1684 v -12.0396 l -0.0508,-1.1684 q -0.0762,-0.8128 -0.381,-1.143 -0.3048,-0.3302 -0.8636,-0.4064 -0.5588,-0.0762 -0.9652,-0.0762 -0.4064,-0.0254 -0.762,-0.0508 v -0.4064 l 11.3538,-0.0254 q 2.362199,0 3.835399,0.2032 1.4732,0.2032 2.3876,0.8128 0.9398,0.6096 1.4732,1.524 0.5588,0.889 0.5588,2.0828 0,0.889 -0.3302,1.778 -0.3048,0.889 -0.9652,1.524 -0.6604,0.635 -1.651,0.9906 -0.9652,0.3556 -3.0988,0.3556 v 0.1778 q 1.2954,0.2794 2.159,0.5334 0.889,0.254 1.6002,0.7366 0.7112,0.4826 1.27,1.4478 0.5842,0.9398 0.9398,2.0828 0.3556,1.1176 0.635,1.6002 0.2794,0.4572 0.7874,0.4572 0.6604,0 0.8636,-0.8382 0.2286,-0.8636 0.2286,-1.9558 h 0.4064 q 0,1.2446 -0.1524,1.9812 -0.1524,0.7366 -0.762,1.5494 -0.6096,0.7874 -1.7526,1.2954 -1.1176,0.4826 -2.4384,0.4826 -2.0574,0 -3.302,-1.1684 -1.2192,-1.1938 -1.524,-3.0988 -0.2794,-1.9304 -0.4572,-3.2512 -0.2794,-1.4732 -0.736599,-1.7018 -0.4572,-0.254 -0.9906,-0.2794 -0.5334,-0.0254 -1.0668,-0.0254 z m 2.032,-0.5334 q 0.965199,-0.1524 1.447799,-1.397 0.508,-1.2446 0.508,-2.7686 0,-1.2446 -0.508,-2.4384 -0.508,-1.2192 -1.2192,-1.4224 -0.711199,-0.2032 -1.269999,-0.2286 -0.5588,-0.0254 -0.9906,-0.0508 v 8.382 h 0.8636 q 0.7112,0 1.1684,-0.0762 z m 39.344607,0.5334 q 0,4.064 -3.0734,6.8072 -3.0734,2.7432 -7.2644,2.7432 -4.368795,0 -7.315195,-2.6924 -2.921,-2.7178 -2.921,-6.858 0,-4.2672 2.9972,-6.9088 2.9972,-2.6416 7.238995,-2.6416 4.2418,0 7.2898,2.6924 3.048,2.667 3.048,6.858 z m -7.7216,-6.9342 q -0.762,-2.1336 -2.6162,-2.1336 -0.9398,0 -1.62559,0.6096 -0.6858,0.6096 -1.0668,1.778 -0.355605,1.143 -0.533405,2.9718 -0.1524,1.8034 -0.1524,3.7084 0,2.6162 0.2032,4.2672 0.203205,1.651 0.762005,3.2258 0.5588,1.5748 2.41299,1.5748 0.9398,0 1.6256,-0.6096 0.6858,-0.6096 1.0414,-1.7526 0.381,-1.1684 0.5334,-2.9718 0.1778,-1.8288 0.1778,-3.7338 0,-2.2606 -0.1524,-3.9116 -0.1524,-1.6764 -0.6096,-3.0226 z m 31.69921,-1.9304 q -0.3302,0.0254 -0.7366,0.0508 -0.381,0.0254 -1.0922,0.1524 -0.7112,0.1016 -1.0922,0.5842 -0.3556,0.4572 -0.4318,1.27 l -0.0508,1.2192 v 14.8336 h -3.0988 l -12.065,-15.4432 h -0.1016 v 11.8618 l 0.0508,1.2192 q 0.0762,0.8382 0.4064,1.2446 0.3556,0.4064 1.0414,0.5334 0.7112,0.1016 1.1938,0.127 0.508,0.0254 0.6858,0.0508 v 0.4064 h -7.3152 v -0.4064 q 0.3302,-0.0254 0.7366,-0.0508 0.4064,-0.0254 1.4224,-0.1778 1.0414,-0.1778 1.1938,-1.7272 l 0.0508,-1.2192 v -11.557 l -0.0508,-1.1684 q -0.3302,-0.5334 -0.7874,-0.9906 -0.4572,-0.4572 -1.016,-0.635 -0.5334,-0.1778 -1.0414,-0.1778 h -0.762 v -0.4064 h 9.7028 l 9.1186,11.684 h 0.1016 v -8.1026 l -0.0508,-1.2192 q -0.0762,-0.8128 -0.4318,-1.2192 -0.3302,-0.4318 -1.016,-0.5334 -0.6858,-0.127 -1.1176,-0.1524 -0.4064,-0.0254 -0.762,-0.0508 v -0.4064 h 7.3152 z m 12.21739,17.526 q 1.524,0 3.0226,-1.397 1.524,-1.397 2.667,-3.2258 1.1684,-1.8288 2.1082,-3.8608 h 0.4064 v 9.0678 h -19.8628 v -0.4064 q 0.2032,0 0.5588,0 0.381,-0.0254 1.1176,-0.1016 0.762,-0.1016 1.0922,-0.4318 0.3302,-0.3302 0.4064,-1.1176 l 0.0508,-1.1684 v -12.065 l -0.0508,-1.1684 q -0.0762,-0.8128 -0.3556,-1.1176 -0.254,-0.3302 -0.8128,-0.4064 -0.5588,-0.0762 -0.9652,-0.0762 -0.4064,-0.0254 -0.7366,-0.0508 v -0.4064 h 12.2936 v 0.4064 l -1.6764,0.0762 q -0.762,0.0762 -1.0414,0.381 -0.2794,0.3048 -0.3556,1.143 l -0.0508,1.1684 v 14.8336 z m 21.43761,0.5842 h -11.9634 v -0.4064 q 0.1778,0 0.4826,0 0.3048,-0.0254 0.9906,-0.1016 0.7112,-0.1016 0.9906,-0.4318 0.3048,-0.3302 0.381,-1.1176 l 0.0508,-1.1684 v -12.065 l -0.0508,-1.1684 q -0.0762,-0.8128 -0.3556,-1.1176 -0.254,-0.3302 -1.0414,-0.4318 l -1.3716,-0.1016 v -0.4064 h 11.8872 v 0.4064 l -1.3716,0.0762 q -0.7874,0.0762 -1.0668,0.381 -0.254,0.2794 -0.3302,1.143 l -0.0508,1.1684 v 12.1666 l 0.0508,1.1684 q 0.0762,0.8382 0.3556,1.143 0.3048,0.2794 1.0922,0.381 l 1.3208,0.0762 z m 23.62198,-18.1102 q -0.3302,0.0254 -0.7366,0.0508 -0.381,0.0254 -1.0922,0.1524 -0.7112,0.1016 -1.0922,0.5842 -0.3556,0.4572 -0.4318,1.27 l -0.0508,1.2192 v 14.8336 h -3.0988 l -12.065,-15.4432 h -0.1016 v 11.8618 l 0.0508,1.2192 q 0.0762,0.8382 0.4064,1.2446 0.3556,0.4064 1.0414,0.5334 0.7112,0.1016 1.1938,0.127 0.508,0.0254 0.6858,0.0508 v 0.4064 h -7.3152 v -0.4064 q 0.3302,-0.0254 0.7366,-0.0508 0.4064,-0.0254 1.4224,-0.1778 1.0414,-0.1778 1.1938,-1.7272 l 0.0508,-1.2192 v -11.557 l -0.0508,-1.1684 q -0.3302,-0.5334 -0.7874,-0.9906 -0.4572,-0.4572 -1.016,-0.635 -0.5334,-0.1778 -1.0414,-0.1778 h -0.762 v -0.4064 h 9.7028 l 9.1186,11.684 h 0.1016 v -8.1026 l -0.0508,-1.2192 q -0.0762,-0.8128 -0.4318,-1.2192 -0.3302,-0.4318 -1.016,-0.5334 -0.6858,-0.127 -1.1176,-0.1524 -0.4064,-0.0254 -0.762,-0.0508 v -0.4064 h 7.3152 z m 10.03298,17.6022 q 1.0668,-0.0254 2.1844,-0.0254 1.1176,-0.0254 2.3622,-0.1778 1.2446,-0.1778 3.0734,-2.5146 1.8288,-2.3622 2.6924,-4.8514 h 0.4064 v 8.0772 h -19.9644 v -0.4064 q 0.3302,0 0.762,-0.0254 0.4318,-0.0508 0.9652,-0.1016 0.5588,-0.0762 0.8382,-0.381 0.3048,-0.3302 0.381,-1.143 l 0.0508,-1.1684 v -12.0396 l -0.0508,-1.1684 q -0.0762,-0.8128 -0.381,-1.143 -0.3048,-0.3302 -0.8636,-0.4064 -0.5334,-0.0762 -0.9906,-0.0762 -0.4318,-0.0254 -0.7874,-0.0508 v -0.4064 h 19.5326 v 7.5184 h -0.4064 q -1.2954,-2.8448 -3.1496,-4.7752 -1.8542,-1.9558 -3.1242,-2.0828 -1.2446,-0.127 -2.1082,-0.1524 -0.8636,-0.0254 -1.143,-0.0254 h -0.2286 l -0.0508,8.3312 1.0668,-0.0508 q 1.4732,-0.1524 2.2098,-1.3716 0.762,-1.2446 0.762,-2.921 h 0.4826 v 9.2456 h -0.4826 q 0,-1.7018 -0.762,-2.9718 -0.7366,-1.27 -2.2098,-1.4224 l -1.0668,-0.0508 z"
       id="path9" /><path
       style="font-family:Elephant;-inkscape-font-specification:Elephant"
       d="m 30.570666,166.93685 h -12.3952 v -0.4064 h 0.7874 c 0.3556,-0.0508 0.702733,-0.0931 1.0414,-0.127 0.338667,-0.0508 0.601133,-0.1778 0.7874,-0.381 0.2032,-0.22013 0.3302,-0.60113 0.381,-1.143 l 0.0508,-1.1684 v -12.0396 l -0.0508,-1.1684 c -0.0508,-0.54187 -0.1778,-0.92287 -0.381,-1.143 -0.2032,-0.22013 -0.491067,-0.3556 -0.8636,-0.4064 -0.3556,-0.0508 -0.6858,-0.0762 -0.9906,-0.0762 -0.287867,-0.0169 -0.550333,-0.0339 -0.7874,-0.0508 v -0.4064 l 11.8618,-0.0254 c 2.760133,0 4.588932,0.3048 5.486399,0.9144 0.9144,0.6096 1.5494,1.27 1.905,1.9812 0.3556,0.69427 0.5334,1.4478 0.5334,2.2606 0,0.762 -0.118533,1.49013 -0.3556,2.1844 -0.237067,0.69427 -0.601133,1.27 -1.0922,1.7272 -0.491067,0.44027 -1.100667,0.77047 -1.8288,0.9906 -0.728133,0.22013 -1.667933,0.3302 -2.8194,0.3302 -1.100666,0 -1.989666,0.008 -2.666999,0.0254 -0.677333,0 -1.2446,0.008 -1.7018,0.0254 v 4.8768 l 0.0508,1.1684 c 0.0508,0.54187 0.169333,0.92287 0.3556,1.143 0.2032,0.2032 0.491067,0.3302 0.8636,0.381 0.372533,0.0508 0.7366,0.0847 1.0922,0.1016 0.3556,0 0.601133,0.008 0.7366,0.0254 z m 1.016,-13.4366 c 0,-0.9652 -0.127,-1.905 -0.381,-2.8194 -0.254,-0.9144 -0.643467,-1.43933 -1.1684,-1.5748 -0.508,-0.1524 -1.007533,-0.2286 -1.4986,-0.2286 -0.474133,-0.0169 -0.829733,-0.0254 -1.0668,-0.0254 v 9.4996 c 0.338667,-0.0169 0.6858,-0.0339 1.0414,-0.0508 0.3556,-0.0169 0.821267,-0.0762 1.397,-0.1778 0.592667,-0.11853 1.016,-0.62653 1.27,-1.524 0.270933,-0.9144 0.4064,-1.94733 0.4064,-3.0988 z m 16.535392,4.191 v 5.9436 l 0.0508,1.1684 c 0.0508,0.54187 0.186267,0.93133 0.4064,1.1684 0.220133,0.23707 0.592667,0.38947 1.1176,0.4572 l 1.2954,0.1016 v 0.4064 h -12.192 v -0.4064 h 0.7874 c 0.372533,-0.0508 0.728133,-0.0931 1.0668,-0.127 0.338667,-0.0508 0.601133,-0.1778 0.7874,-0.381 0.2032,-0.22013 0.3302,-0.60113 0.381,-1.143 l 0.0508,-1.1684 v -12.0396 l -0.0508,-1.1684 c -0.0508,-0.54187 -0.1778,-0.92287 -0.381,-1.143 -0.2032,-0.22013 -0.491067,-0.3556 -0.8636,-0.4064 -0.372533,-0.0508 -0.694267,-0.0762 -0.9652,-0.0762 -0.270933,-0.0169 -0.524933,-0.0339 -0.762,-0.0508 v -0.4064 l 11.3538,-0.0254 c 1.5748,0 2.853267,0.0677 3.8354,0.2032 0.982133,0.13547 1.778,0.4064 2.3876,0.8128 0.626533,0.4064 1.1176,0.9144 1.4732,1.524 0.372533,0.59267 0.5588,1.28693 0.5588,2.0828 0,0.59267 -0.110067,1.18533 -0.3302,1.778 -0.2032,0.59267 -0.524933,1.10067 -0.9652,1.524 -0.440267,0.42333 -0.9906,0.75353 -1.651,0.9906 -0.643467,0.23707 -1.6764,0.3556 -3.0988,0.3556 v 0.1778 c 0.8636,0.18627 1.583267,0.36407 2.159,0.5334 0.592667,0.16933 1.126067,0.41487 1.6002,0.7366 0.474133,0.32173 0.897467,0.80433 1.27,1.4478 0.389467,0.62653 0.702733,1.3208 0.9398,2.0828 0.237067,0.74507 0.448733,1.27847 0.635,1.6002 0.186267,0.3048 0.448733,0.4572 0.7874,0.4572 0.440267,0 0.728133,-0.2794 0.8636,-0.8382 0.1524,-0.57573 0.2286,-1.22767 0.2286,-1.9558 h 0.4064 c 0,0.82973 -0.0508,1.49013 -0.1524,1.9812 -0.1016,0.49107 -0.3556,1.00753 -0.762,1.5494 -0.4064,0.52493 -0.9906,0.95673 -1.7526,1.2954 -0.745067,0.32173 -1.557867,0.4826 -2.4384,0.4826 -1.3716,0 -2.472267,-0.38947 -3.302,-1.1684 -0.8128,-0.79587 -1.3208,-1.8288 -1.524,-3.0988 -0.186267,-1.28693 -0.338667,-2.37067 -0.4572,-3.2512 -0.186267,-0.98213 -0.4318,-1.5494 -0.7366,-1.7018 -0.3048,-0.16933 -0.635,-0.26247 -0.9906,-0.2794 -0.3556,-0.0169 -0.7112,-0.0254 -1.0668,-0.0254 z m 2.032,-0.5334 c 0.643467,-0.1016 1.126067,-0.56727 1.4478,-1.397 0.338667,-0.82973 0.508,-1.7526 0.508,-2.7686 0,-0.82973 -0.169333,-1.64253 -0.508,-2.4384 -0.338667,-0.8128 -0.745067,-1.28693 -1.2192,-1.4224 -0.474133,-0.13547 -0.897467,-0.21167 -1.27,-0.2286 -0.372533,-0.0169 -0.702733,-0.0339 -0.9906,-0.0508 v 8.382 h 0.8636 c 0.474133,0 0.8636,-0.0254 1.1684,-0.0762 z m 21.132818,9.271 c 0.7112,-0.0169 1.439333,-0.0254 2.1844,-0.0254 0.745067,-0.0169 1.532467,-0.0762 2.3622,-0.1778 0.829733,-0.11853 1.8542,-0.95673 3.0734,-2.5146 1.219199,-1.5748 2.116666,-3.19193 2.692399,-4.8514 h 0.4064 v 8.0772 H 62.041276 v -0.4064 c 0.220133,0 0.474133,-0.008 0.762,-0.0254 0.287867,-0.0339 0.6096,-0.0677 0.9652,-0.1016 0.372533,-0.0508 0.651933,-0.1778 0.8382,-0.381 0.2032,-0.22013 0.3302,-0.60113 0.381,-1.143 l 0.0508,-1.1684 v -12.0396 l -0.0508,-1.1684 c -0.0508,-0.54187 -0.1778,-0.92287 -0.381,-1.143 -0.2032,-0.22013 -0.491067,-0.3556 -0.8636,-0.4064 -0.3556,-0.0508 -0.6858,-0.0762 -0.9906,-0.0762 -0.287867,-0.0169 -0.550333,-0.0339 -0.7874,-0.0508 v -0.4064 h 19.532599 v 7.5184 h -0.4064 c -0.863599,-1.89653 -1.913466,-3.48827 -3.149599,-4.7752 -1.236133,-1.30387 -2.277533,-1.99813 -3.1242,-2.0828 -0.829733,-0.0847 -1.532467,-0.13547 -2.1082,-0.1524 -0.575733,-0.0169 -0.956733,-0.0254 -1.143,-0.0254 h -0.2286 l -0.0508,8.3312 1.0668,-0.0508 c 0.982133,-0.1016 1.718733,-0.5588 2.2098,-1.3716 0.508,-0.82973 0.762,-1.8034 0.762,-2.921 h 0.4826 v 9.2456 h -0.4826 c 0,-1.13453 -0.254,-2.12513 -0.762,-2.9718 -0.491067,-0.84667 -1.227667,-1.3208 -2.2098,-1.4224 l -1.0668,-0.0508 z m 29.159194,-4.9276 c 0,1.6764 -0.711198,3.05647 -2.133595,4.1402 -1.405467,1.0668 -2.937933,1.6002 -4.5974,1.6002 -1.456267,0 -2.8956,-0.4572 -4.318,-1.3716 -1.4224,-0.93133 -2.243667,-1.397 -2.4638,-1.397 -0.5588,0 -0.905933,0.21167 -1.0414,0.635 -0.135467,0.42333 -0.262467,1.13453 -0.381,2.1336 h -0.4318 v -9.0932 h 0.4318 c 0.1016,0.3556 0.270933,0.9398 0.508,1.7526 0.254,0.8128 0.7112,1.78647 1.3716,2.921 0.677333,1.1176 1.557867,2.04893 2.6416,2.794 1.100667,0.74507 2.370667,1.1176 3.81,1.1176 0.829733,0 1.507067,-0.22013 2.032,-0.6604 0.524933,-0.44027 0.7874,-0.9652 0.7874,-1.5748 0,-0.72813 -0.194733,-1.30387 -0.5842,-1.7272 -0.389467,-0.42333 -1.0922,-0.82973 -2.1082,-1.2192 -1.016,-0.4064 -2.091267,-0.8382 -3.2258,-1.2954 -1.134533,-0.4572 -2.3368,-1.07527 -3.6068,-1.8542 -1.27,-0.762 -1.905,-2.20133 -1.905,-4.318 0,-1.65947 0.668867,-3.06493 2.0066,-4.2164 1.337733,-1.15147 2.878667,-1.7272 4.6228,-1.7272 0.9652,0 1.905,0.2286 2.8194,0.6858 l 2.6416,1.4732 c 0.491067,0 0.8128,-0.2032 0.9652,-0.6096 0.1524,-0.42333 0.2286,-0.9398 0.2286,-1.5494 h 0.4826 v 6.731 h -0.4572 c -0.08467,-0.28787 -0.262467,-0.77893 -0.5334,-1.4732 -0.254,-0.69427 -0.762,-1.4732 -1.524,-2.3368 -0.745067,-0.8636 -1.490133,-1.48167 -2.2352,-1.8542 -0.728133,-0.38947 -1.608667,-0.5842 -2.6416,-0.5842 -0.694267,0 -1.337733,0.2032 -1.9304,0.6096 -0.592667,0.4064 -0.889,0.9144 -0.889,1.524 0,0.64347 0.220133,1.18533 0.6604,1.6256 0.4572,0.42333 0.973667,0.762 1.5494,1.016 0.592667,0.254 1.405467,0.57573 2.4384,0.9652 1.032933,0.38947 2.099733,0.84667 3.2004,1.3716 1.1176,0.508 2.032,1.26153 2.7432,2.2606 0.711195,0.98213 1.066795,2.15053 1.066795,3.5052 z m 13.21459,4.7229 c 0.7112,-0.0169 -0.85328,0.1793 -0.10821,0.1793 0.74507,-0.0169 1.53247,-0.0762 2.3622,-0.1778 0.82973,-0.11853 1.8542,-0.95673 3.0734,-2.5146 1.2192,-1.5748 2.11667,-3.19193 2.6924,-4.8514 h 0.4064 v 8.0772 h -19.9644 v -0.4064 c 0.22013,0 0.47413,-0.008 0.762,-0.0254 0.28787,-0.0339 0.6096,-0.0677 0.9652,-0.1016 0.37253,-0.0508 0.65193,-0.1778 0.8382,-0.381 0.2032,-0.22013 0.3302,-0.60113 0.381,-1.143 l 0.0508,-1.1684 v -12.0396 l -0.0508,-1.1684 c -0.0508,-0.54187 -0.1778,-0.92287 -0.381,-1.143 -0.2032,-0.22013 -0.49107,-0.3556 -0.8636,-0.4064 -0.3556,-0.0508 -0.6858,-0.0762 -0.9906,-0.0762 -0.28787,-0.0169 -0.55033,-0.0339 -0.7874,-0.0508 v -0.4064 h 19.5326 v 7.5184 h -0.4064 c -0.8636,-1.89653 -1.91347,-3.48827 -3.1496,-4.7752 -1.23613,-1.30387 -2.27753,-1.99813 -3.1242,-2.0828 -0.82973,-0.0847 -1.53247,-0.13547 -2.1082,-0.1524 -0.57573,-0.0169 -0.95673,-0.0254 -1.143,-0.0254 h -0.2286 l -0.0917,7.02114 1.67381,0.12711 c 1.67811,-0.18348 1.11172,0.20489 1.60279,-0.60791 0.0363,-1.86754 0.066,-1.63964 0.066,-2.75724 l 4.89899,4.63894 -4.12981,5.42545 -0.35979,-0.0409 c 0,-1.13453 0.0326,-2.20701 -0.47542,-3.05368 -0.49107,-0.84667 -1.46976,-0.49123 -2.4519,-0.59283 l 1.46791,0.10214 z m 32.58159,-17.3975 c -0.22013,0.0169 -0.46567,0.0339 -0.7366,0.0508 -0.254,0.0169 -0.61807,0.0677 -1.0922,0.1524 -0.47413,0.0677 -0.8382,0.26247 -1.0922,0.5842 -0.23707,0.3048 -0.381,0.72813 -0.4318,1.27 l -0.0508,1.2192 v 14.8336 h -3.0988 l -12.065,-15.4432 h -0.1016 v 11.8618 l 0.0508,1.2192 c 0.0508,0.5588 0.18627,0.97367 0.4064,1.2446 0.23707,0.27093 0.5842,0.44873 1.0414,0.5334 0.47413,0.0677 0.87207,0.11007 1.1938,0.127 0.33867,0.0169 0.56727,0.0339 0.6858,0.0508 v 0.4064 h -7.3152 v -0.4064 c 0.22013,-0.0169 0.46567,-0.0339 0.7366,-0.0508 0.27093,-0.0169 0.74507,-0.0762 1.4224,-0.1778 0.69427,-0.11853 1.0922,-0.69427 1.1938,-1.7272 l 0.0508,-1.2192 v -11.557 l -0.0508,-1.1684 c -0.22013,-0.3556 -0.4826,-0.6858 -0.7874,-0.9906 -0.3048,-0.3048 -0.64347,-0.51647 -1.016,-0.635 -0.3556,-0.11853 -0.70273,-0.1778 -1.0414,-0.1778 h -0.762 v -0.4064 h 9.7028 l 9.1186,11.684 h 0.1016 v -8.1026 l -0.0508,-1.2192 c -0.0508,-0.54187 -0.19473,-0.94827 -0.4318,-1.2192 -0.22013,-0.28787 -0.5588,-0.46567 -1.016,-0.5334 -0.4572,-0.0847 -0.82973,-0.13547 -1.1176,-0.1524 -0.27093,-0.0169 -0.52493,-0.0339 -0.762,-0.0508 v -0.4064 h 7.3152 z m 11.35379,18.415 c -2.91253,0 -5.3086,-0.89747 -7.1882,-2.6924 -1.86267,-1.81187 -2.794,-4.09787 -2.794,-6.858 0,-2.82787 0.92287,-5.12233 2.7686,-6.8834 1.86267,-1.778 4.25873,-2.667 7.1882,-2.667 1.25307,0 2.3368,0.21167 3.2512,0.635 l 2.6924,1.524 c 0.508,0 0.84667,-0.16933 1.016,-0.508 0.16933,-0.3556 0.28787,-0.85513 0.3556,-1.4986 h 0.508 v 8.0264 h -0.4318 c -0.74507,-2.06587 -1.27847,-3.46287 -1.6002,-4.191 -0.3048,-0.72813 -0.82127,-1.43087 -1.5494,-2.1082 -0.72813,-0.67733 -1.65947,-1.016 -2.794,-1.016 -1.4732,0 -2.5654,0.82973 -3.2766,2.4892 -0.7112,1.65947 -1.0668,3.59833 -1.0668,5.8166 0,2.3876 0.42333,4.46193 1.27,6.223 0.8636,1.74413 2.12513,2.6162 3.7846,2.6162 1.54093,0 2.77707,-0.5588 3.7084,-1.6764 0.93133,-1.1176 1.5494,-2.57387 1.8542,-4.3688 l 0.4318,0.0762 c -0.23707,2.032 -1.00753,3.71687 -2.3114,5.0546 -1.30387,1.33773 -3.24273,2.0066 -5.8166,2.0066 z m 18.82139,-0.8128 c 0.7112,-0.0169 1.43933,-0.0254 2.1844,-0.0254 0.74507,-0.0169 1.53247,-0.0762 2.3622,-0.1778 0.82973,-0.11853 1.8542,-0.95673 3.0734,-2.5146 1.2192,-1.5748 2.11667,-3.19193 2.6924,-4.8514 h 0.4064 v 8.0772 h -19.9644 v -0.4064 c 0.22013,0 0.47413,-0.008 0.762,-0.0254 0.28787,-0.0339 0.6096,-0.0677 0.9652,-0.1016 0.37253,-0.0508 0.65193,-0.1778 0.8382,-0.381 0.2032,-0.22013 0.3302,-0.60113 0.381,-1.143 l 0.0508,-1.1684 v -12.0396 l -0.0508,-1.1684 c -0.0508,-0.54187 -0.1778,-0.92287 -0.381,-1.143 -0.2032,-0.22013 -0.49107,-0.3556 -0.8636,-0.4064 -0.3556,-0.0508 -0.6858,-0.0762 -0.9906,-0.0762 -0.28787,-0.0169 -0.55033,-0.0339 -0.7874,-0.0508 v -0.4064 h 19.5326 v 7.5184 h -0.4064 c -0.8636,-1.89653 -1.91347,-3.48827 -3.1496,-4.7752 -1.23613,-1.30387 -2.27753,-1.99813 -3.1242,-2.0828 -0.82973,-0.0847 -1.53247,-0.13547 -2.1082,-0.1524 -0.57573,-0.0169 -0.95673,-0.0254 -1.143,-0.0254 h -0.2286 l -0.0508,8.3312 1.0668,-0.0508 c 0.98213,-0.1016 1.71873,-0.5588 2.2098,-1.3716 0.508,-0.82973 0.762,-1.8034 0.762,-2.921 h 0.4826 v 9.2456 h -0.4826 c 0,-1.13453 -0.254,-2.12513 -0.762,-2.9718 -0.49107,-0.84667 -1.22767,-1.3208 -2.2098,-1.4224 l -1.0668,-0.0508 z"
       id="path10"
       sodipodi:nodetypes="ccccccccccscccccccsscsscccccscccssccccsccscccsccccccccccccssccccsccscsccccscccscccsccsccccscccscssccscccccccccccccccccscccccccccssccccccccccccscscsscccccccsssscscsssccccccccccsssccsccsccccccccccccccccscccccccccsscccccccccccccccccccccccccccccccscccccscsccccccccccccccscscsccccccccsssscssccssccccccccccccccccscccccccccsscccccccccccc" /></g></svg>
